<svg width="415" height="550" viewBox="0 0 415 550" fill="none" xmlns="http://www.w3.org/2000/svg">
<circle cx="207.5" cy="269" r="246" fill="#9AA2FD"/>
<circle cx="207.5" cy="269" r="246" fill="#949DFF"/>
<circle cx="207.5" cy="269" r="211" fill="#9AA2FD"/>
<circle cx="207.5" cy="269" r="211" fill="#99A1FF"/>
<circle cx="207.5" cy="269" r="177" fill="#9AA2FD"/>
<circle cx="207.5" cy="269" r="177" fill="#9EA6FF"/>
<path d="M296.9 78C295.329 69.7727 286.645 65.5733 282.5 64.5021C292.449 61.931 297.118 69.8584 298.209 74.1434C309.205 67.973 316.318 72.0009 318.5 74.7862C310.122 72.2152 300.609 75.8575 296.9 78Z" fill="#B4BAFF"/>
<path d="M62.3 94C61.34 89.2987 56.0333 86.899 53.5 86.2869C59.58 84.8177 62.4333 89.3477 63.1 91.7963C69.82 88.2703 74.1667 90.572 75.5 92.1635C70.38 90.6944 64.5667 92.7757 62.3 94Z" fill="#B4BAFF"/>
<circle cx="207.5" cy="269" r="142" fill="#A3ABFF"/>
<rect x="-1.5" y="308" width="416" height="266" fill="#8C96FF"/>
<path d="M67.0835 276L-8.5 309H421.5L347.998 276H67.0835Z" fill="#8C96FF"/>
<path d="M180.98 214.64L166.7 237.84L194.09 270.37H221.71L247.46 237.29L231.52 214.64H180.98Z" fill="#3F4553"/>
<path d="M166.7 237.84C166.7 237.84 105.27 242.59 89.8599 258.68C74.4499 274.77 81.6999 292.24 96.7099 292.24C124.34 292.24 182.8 293.93 210.46 292.24L212.11 254.57L166.7 237.84Z" fill="#3F4553"/>
<path d="M245.87 237.04C245.87 237.04 310.2 242.59 325.61 258.68C341.02 274.77 332.14 285.43 318.76 292.24C299.93 301.83 232.06 300.24 196.86 288.59L203.37 254.57L245.87 237.04Z" fill="#3F4553"/>
<path d="M248.7 268.64L244.35 257.4L249.77 254.99C249.77 254.99 249.02 248.34 255.65 247.06C262.28 245.78 270.18 250.06 277.88 246.61C284.98 243.43 293.67 240.5 301.78 244.9C302.98 245.55 303.54 246.98 303.13 248.28L303.1 248.38C302.69 249.69 301.41 250.5 300.04 250.36C297.18 250.07 292.08 250.13 287.04 253.18C278.35 258.46 248.7 268.64 248.7 268.64Z" fill="#FEBBA0"/>
<path d="M299.31 269.28C299.31 269.28 256.38 261.65 165.95 260.47L157.22 272.31C157.22 272.31 179.72 285.17 200.84 289.82C221.96 294.47 294.87 309.11 327.43 286.56L299.31 269.28Z" fill="#3F4553"/>
<path d="M200.84 289.83C179.19 284.83 156.54 272.01 156.54 272.01L157.89 269.72" stroke="#6E758F" stroke-width="1.5925" stroke-miterlimit="10" stroke-linecap="round"/>
<path d="M165.95 260.47C165.95 260.47 265.3 258.2 291.81 273.58" stroke="#6E758F" stroke-width="1.5925" stroke-miterlimit="10" stroke-linecap="round"/>
<path d="M117.18 266.91C117.18 266.91 135.32 258.41 147.72 263.98" stroke="#6E758F" stroke-width="1.5925" stroke-miterlimit="10" stroke-linecap="round"/>
<path d="M159.31 270.35L165.94 260.25L159.31 256.66C159.31 256.66 156.99 250.85 150.49 249.05C143.98 247.26 139.35 250.15 131.94 246.11C125.11 242.38 116.67 238.79 108.25 242.54C107.01 243.09 106.33 244.47 106.64 245.8L106.66 245.9C106.97 247.24 108.18 248.14 109.55 248.11C112.42 248.04 117.51 248.5 122.29 251.94C130.54 257.88 159.31 270.35 159.31 270.35Z" fill="#FEBBA0"/>
<path d="M216.39 260.83L243.55 258.16" stroke="#6E758F" stroke-width="1.5925" stroke-miterlimit="10" stroke-linecap="round"/>
<path d="M181.85 249.06L197 260.03" stroke="#6E758F" stroke-width="1.5925" stroke-miterlimit="10" stroke-linecap="round"/>
<path d="M177.94 99.7702C178.58 106.03 184.03 110.59 190.11 109.97C196.19 109.35 200.6 103.77 199.96 97.5202C199.32 91.2602 193.87 86.7002 187.79 87.3202C181.72 87.9302 177.31 93.5102 177.94 99.7702Z" fill="#3F4553"/>
<path d="M200.65 104.32C200.65 104.32 181.33 101.4 178.29 83.1702C175.61 67.0602 186.42 54.1502 198.27 51.9202C198.28 51.9202 226.75 95.8002 200.65 104.32Z" fill="#3F4553"/>
<path d="M201.09 53.6502C199.67 54.3502 198.32 55.2702 197.09 56.4602C186.08 67.0502 193.05 87.6102 202.91 96.8902C208.37 102.02 216.35 104.41 223.32 101.79C233.51 97.9602 236.7 86.4202 234.63 76.1402C233.09 68.4802 228.84 61.2502 222.57 56.7502C216.3 52.2602 207.83 50.3602 201.09 53.6502Z" fill="#FDBCA0"/>
<path d="M199.26 90.6902C197.33 92.6002 193.97 93.3802 191.39 92.4702C188.81 91.5602 186.69 89.1302 186.02 86.3102C185.42 83.7802 186.07 80.9002 187.93 79.3502C189.79 77.8002 193.14 77.9002 194.73 79.9102L199.26 90.6902Z" fill="#FDBCA0"/>
<path d="M196.44 83.9702L198.47 120.31C198.74 127.03 204.19 132.37 210.91 132.5C218.67 132.66 224.76 125.88 223.77 118.18L219.67 84.4402L196.44 83.9702Z" fill="#FDBCA0"/>
<path d="M222.43 107.22L221.92 102.24C221.92 102.24 211.92 105.31 202.91 96.8802C202.91 96.8902 208.1 106.36 222.43 107.22Z" fill="#DF8370"/>
<path d="M192.47 78.4802C205.49 77.8102 217.37 69.0702 223.93 57.8102C223.93 57.8102 211.95 46.4402 194.44 53.0902C179.93 58.5902 192.47 78.4802 192.47 78.4802Z" fill="#3F4553"/>
<path d="M193.9 86.8402C192.4 86.9902 191.09 86.1802 190.97 85.0302C190.88 84.1602 191.49 83.3502 192.43 82.9302" stroke="#444359" stroke-width="1.1144" stroke-miterlimit="10" stroke-linecap="round"/>
<path d="M225.18 84.0002C225.48 83.0902 226 82.3702 226.58 81.6902L226.86 82.5702C226.2 82.3202 225.84 81.9402 225.47 81.5702C225.12 81.1802 224.81 80.7902 224.53 80.3702C223.97 79.5402 223.5 78.6602 223.16 77.7302C223.86 78.4402 224.5 79.1702 225.17 79.8702C225.51 80.2102 225.83 80.5602 226.18 80.8602C226.51 81.1502 226.9 81.4502 227.17 81.5202L227.98 81.7102L227.45 82.4002C226.91 83.1102 226.31 83.7702 225.48 84.2502C225.38 84.3102 225.26 84.2702 225.2 84.1802C225.17 84.1102 225.17 84.0502 225.18 84.0002Z" fill="#444359"/>
<path d="M228.11 87.1802C227.71 88.0002 227.03 88.7102 226.15 89.1402C225.28 89.5902 224.2 89.6802 223.24 89.4002C222.26 89.1302 221.5 88.4902 220.85 87.8302C220.56 87.4702 220.27 87.1002 220.03 86.7202C219.82 86.3102 219.6 85.9102 219.44 85.4902C219.81 85.7702 220.13 86.0702 220.45 86.3702L221.44 87.1902C222.14 87.6502 222.8 88.1502 223.56 88.3302C224.29 88.5602 225.07 88.5502 225.84 88.3402C226.6 88.1202 227.36 87.6902 228.11 87.1802Z" fill="#444359"/>
<path d="M217.64 74.1102C218.03 75.2702 218.25 76.4702 218.17 77.7602C218.12 78.3902 217.97 79.0802 217.5 79.6902C217.02 80.3102 216.21 80.5802 215.5 80.5602C214.77 80.5502 214.05 80.2302 213.56 79.7802C213.05 79.3302 212.65 78.8102 212.35 78.2602C211.75 77.1502 211.37 75.9902 211.18 74.7702C211.15 74.5802 211.28 74.4002 211.47 74.3602C211.65 74.3302 211.81 74.4402 211.86 74.6002L211.87 74.6202C212.21 75.7002 212.66 76.7902 213.24 77.7302C213.82 78.6402 214.61 79.4802 215.54 79.4502C216 79.4702 216.43 79.3502 216.69 79.0202C216.98 78.7002 217.12 78.1802 217.2 77.6502C217.35 76.5802 217.25 75.4002 217.07 74.2702V74.2502C217.04 74.0902 217.16 73.9302 217.32 73.9102C217.45 73.8902 217.59 73.9802 217.64 74.1102Z" fill="#444359"/>
<path d="M232.16 71.8402C232.49 72.8202 232.67 73.8202 232.65 74.8902C232.64 75.4202 232.54 76.0002 232.2 76.5502C231.87 77.1302 231.13 77.4902 230.49 77.4602C229.82 77.4502 229.21 77.1002 228.82 76.6902C228.42 76.2702 228.11 75.8202 227.88 75.3402C227.43 74.3802 227.15 73.4002 227.01 72.3702C226.98 72.1802 227.12 72.0002 227.32 71.9702C227.49 71.9502 227.65 72.0502 227.7 72.2102L227.71 72.2302C228 73.1302 228.35 74.0502 228.8 74.8502C229.25 75.6302 229.86 76.3802 230.53 76.3402C230.87 76.3502 231.14 76.2502 231.32 75.9702C231.52 75.6902 231.62 75.2602 231.68 74.8102C231.78 73.9102 231.7 72.9202 231.59 71.9802V71.9602C231.57 71.8002 231.69 71.6502 231.85 71.6202C231.98 71.6202 232.12 71.7102 232.16 71.8402Z" fill="#444359"/>
<path d="M242.96 123.61C242.87 117.51 223.09 112.63 223.09 112.63C221.85 114 219.72 116.31 210.75 116.31C202.17 116.31 198.74 114.09 197.4 112.63H188.91C187.02 112.63 185.29 113.71 184.5 115.43C167.49 152.64 177.05 194.2 180.97 214.63C181.33 216.51 216.83 215.24 232.84 216.51C236.3 216.8 243.3 145.78 242.96 123.61Z" fill="#FEE6C6"/>
<path d="M201.65 176.23C203.41 162.01 205.56 153.48 207.21 156.28C208.67 158.76 207.86 171.2 205.67 183.2C205.68 183.2 200.9 182.32 201.65 176.23Z" fill="#FEBBA0"/>
<path d="M213.27 176.23C211.51 162.01 209.36 153.48 207.71 156.28C206.25 158.76 207.06 171.2 209.25 183.2C209.24 183.2 214.02 182.32 213.27 176.23Z" fill="#FEBBA0"/>
<path d="M271.89 172.7H249.54L253.09 195.4L212.53 175.61C212.39 174.09 212.2 172.21 211.97 170.22C210.44 170.22 208.9 170.22 207.37 170.2C207.38 171.93 207.41 173.1 207.41 173.1C207.41 173.1 206.62 183.54 208.43 187.02C211.87 193.64 247.06 214.96 256.83 217.49C257.44 217.65 258.05 217.77 258.66 217.85C268.09 219.18 274.34 213.89 274.27 204.37L271.89 172.7Z" fill="#FEBBA0"/>
<path d="M202.55 170.12C202.2 172.36 201.89 174.52 201.65 176.23L162.26 194.47L163.92 172.71H141.57L139.2 204.4C139.14 213.92 145.39 219.2 154.81 217.88C155.42 217.79 156.03 217.67 156.64 217.52C166.41 214.99 199.14 197.3 206.13 186.98C208.2 183.93 207.22 173.66 207.22 173.66C207.22 173.66 207.22 172.24 207.18 170.22C205.64 170.19 204.1 170.16 202.55 170.12Z" fill="#FEBBA0"/>
<path d="M169.64 185.12C178.38 159.27 178.31 159.25 189.04 112.64C181.86 113.13 181.12 111.96 175.46 114.9C158.48 123.72 142.49 152.69 137.78 185.12H169.64Z" fill="#FEE6C6"/>
<path d="M247.46 182.57C242.32 164.26 223.09 112.64 223.09 112.64C242.32 111.99 268.56 137.06 274.84 179.22L247.46 182.57Z" fill="#FEE6C6"/>
<path d="M242.97 142.14L238.92 175.42" stroke="#EED2AD" stroke-width="1.5925" stroke-miterlimit="10" stroke-linecap="round"/>
<path d="M173.32 147.6L176.54 183.2" stroke="#EED2AD" stroke-width="1.5925" stroke-miterlimit="10" stroke-linecap="round"/>
<path d="M345.748 115.025C297.749 101.525 304.748 142.025 314.748 142.025C318.857 142.025 327.373 143.025 337.749 143.025H369.249C409.248 143.025 420.749 140.358 421.249 139.525C424.749 113.025 403.582 115.525 392.249 118.525C394.082 108.692 392.149 88.8252 369.748 88.0252C347.348 87.2252 344.415 105.692 345.748 115.025Z" fill="#B4BAFF"/>
<path d="M8.25573 39.7874C-12.7717 33.8992 -9.70541 51.5638 -5.3247 51.5638C-3.5249 51.5638 0.205866 52 4.75144 52H18.5509C36.0738 52 41.1117 50.8369 41.331 50.4734C42.8643 38.9151 33.5916 40.0055 28.6267 41.314C29.4299 37.025 28.5828 28.3599 18.7696 28.011C8.95638 27.662 7.67151 35.7165 8.25573 39.7874Z" fill="#A6ADFB"/>
<circle cx="39.5" cy="17" r="6" fill="#A6ADFB"/>
<circle r="3" transform="matrix(1 0 0 -1 30.5 3)" fill="#A6ADFB"/>
</svg>
