<svg width="165" height="130" viewBox="0 0 165 130" fill="none" xmlns="http://www.w3.org/2000/svg">
<g clip-path="url(#clip0_1_2329)">
<path d="M150.886 24.3394H147.5V41.3394H150.886V24.3394Z" fill="#9BA3FF"/>
<path d="M156.193 30.0536H152.807V41.3391H156.193V30.0536Z" fill="#9BA3FF"/>
<path d="M161.507 35.4393H158.121V41.3394H161.507V35.4393Z" fill="#9BA3FF"/>
</g>
<g clip-path="url(#clip1_1_2329)">
<path d="M86 129.339C105.054 129.339 120.5 126.653 120.5 123.339C120.5 120.026 105.054 117.339 86 117.339C66.9462 117.339 51.5 120.026 51.5 123.339C51.5 126.653 66.9462 129.339 86 129.339Z" fill="#808AFF"/>
</g>
<path d="M80.1817 45.4955C80.1817 45.4955 78.8302 60.436 84.4285 60.2109C90.4339 59.9663 88.8185 45.4955 88.8185 45.4955C88.0337 43.163 87.721 41.7799 88.0727 39.3333H80.7809C81.1327 41.7799 80.9633 43.163 80.1817 45.4955Z" fill="#FDBCA0"/>
<path d="M80.9274 42.2234C81.7546 42.4713 82.5883 42.6996 83.4514 42.7714C84.2688 42.8399 85.109 42.7877 85.9232 42.6996C86.6006 42.6246 87.3236 42.5039 88.001 42.2788C87.8935 41.3915 87.9098 40.4781 88.0759 39.3298H80.7841C80.9437 40.4553 80.9925 41.3556 80.9274 42.2234Z" fill="#F0A38B"/>
<path d="M84.4283 41.3721C86.5094 41.3721 88.5122 40.5501 89.9778 39.069C91.7234 37.3075 93.0912 35.3437 93.4918 33.0374C94.0063 30.0754 93.0065 27.1166 90.8245 24.7353H78.0288C75.8468 27.1133 74.847 30.0754 75.3616 33.0374C75.7621 35.3437 77.1332 37.3075 78.8756 39.069C80.3444 40.5468 82.3473 41.3721 84.4283 41.3721Z" fill="#FDBCA0"/>
<path d="M85.0635 47.2375C84.7997 47.5279 84.5522 47.8443 84.3177 48.1607C84.0344 47.965 83.8097 47.7268 83.5622 47.4822C83.5394 47.4593 83.4938 47.4822 83.5035 47.5148C83.6436 47.8997 83.9367 48.2129 84.2363 48.4804C84.3014 48.5359 84.3926 48.5424 84.4578 48.4804C84.7737 48.1705 85.0831 47.8084 85.3273 47.4365C85.4315 47.2832 85.1905 47.0972 85.0635 47.2375Z" fill="#DF8370"/>
<path d="M92.1046 46.6666C90.1603 46.833 88.2421 47.1494 86.35 47.6322C86.236 47.6616 86.2848 47.8345 86.3988 47.8084C88.2812 47.3908 90.1831 47.107 92.1046 46.9765C92.3065 46.9635 92.3033 46.6503 92.1046 46.6666Z" fill="#DF8370"/>
<path d="M76.7491 46.6666C78.6934 46.833 80.6116 47.1494 82.5037 47.6322C82.6177 47.6616 82.5689 47.8345 82.4549 47.8084C80.5725 47.3908 78.6706 47.107 76.7491 46.9765C76.5504 46.9635 76.5504 46.6503 76.7491 46.6666Z" fill="#DF8370"/>
<path d="M77.0844 19.8095C74.365 21.3688 72.4501 23.8252 72.4175 27.1265C72.3849 30.8486 76.9118 36.7758 76.8499 36.629C75.3453 33.0081 74.9512 28.0235 78.7062 25.528C79.0808 25.2801 79.5497 25.1366 79.8852 24.8462C79.8754 22.8792 78.7909 20.9741 77.0844 19.8095Z" fill="#3F4553"/>
<path d="M91.5049 19.8095C94.2243 21.3688 96.1392 23.8252 96.1718 27.1265C96.2044 30.8486 93.98 34.1596 91.7654 36.9716C92.3289 35.745 93.6348 28.0203 89.8798 25.528C89.5053 25.2801 89.0363 25.1366 88.7009 24.8462C88.7139 22.8792 89.8016 20.9741 91.5049 19.8095Z" fill="#424495"/>
<path d="M130.55 17.8392C128.473 16.8052 126.046 16.5833 123.786 17.0433C122.692 17.2651 121.656 17.6533 120.669 18.1785C120.015 18.5243 119.35 19.0201 118.588 19.0789C117.663 19.1474 116.853 18.5439 116.165 18.0089C114.029 16.3452 111.857 14.887 109.108 14.4858C107.779 14.29 106.294 14.4336 105.265 15.2491C104.21 13.8529 102.637 12.858 100.904 12.4926C98.6116 12.0098 96.4328 12.6981 94.6319 14.0813C93.6158 13.5822 91.8376 12.8645 91.6129 12.8025C84.8389 10.9366 75.5898 15.6699 76.7882 23.6524C77.8174 30.5126 86.49 33.6834 92.4987 32.2742C93.7949 34.7305 96.9018 35.3014 99.2955 34.0227C99.4779 34.1629 99.6603 34.3032 99.8459 34.4402C103.666 37.2456 108.111 39.0692 112.912 38.2406C114.736 37.9242 116.442 37.2652 118.012 36.3192C119.504 37.4414 121.467 37.7969 123.275 36.9292C124.62 36.2866 125.522 35.0992 125.844 33.7552C125.867 33.7552 125.89 33.7552 125.913 33.7552C129.905 33.7062 134.139 31.7196 135.159 27.5278C136.087 23.7176 134.022 19.5649 130.55 17.8392Z" fill="#4E5567"/>
<path d="M112.397 16.5964C113.71 17.6697 114.488 19.1409 113.671 20.7622C113.006 22.0833 111.811 23.0457 110.941 24.2168C109.922 25.5869 109.746 27.3451 111.417 28.3466C113.062 29.3318 115.123 28.1052 116.494 27.1755C118.188 26.024 120.005 22.6933 121.464 21.2645C127.945 14.9197 134.38 21.7017 134.406 21.7245C133.566 20.0739 132.224 18.6744 130.55 17.8393C128.472 16.8052 126.046 16.5834 123.786 17.0433C122.692 17.2652 121.656 17.6534 120.669 18.1786C120.015 18.5243 119.35 19.0202 118.588 19.0789C117.663 19.1474 116.852 18.5439 116.165 18.0089C114.029 16.3452 111.857 14.8871 109.108 14.4858C107.808 14.2966 106.359 14.4336 105.333 15.2035C107.571 14.3325 110.603 15.1252 112.397 16.5964Z" fill="#3F4553"/>
<path d="M129.658 32.6788C128.072 32.8647 126.587 32.7766 125.128 32.1275C124.499 33.7618 123.213 35.4124 121.395 35.6701C120.174 35.843 118.731 35.4614 118.481 34.1663C109.896 41.1668 100.272 33.3573 99.3441 31.8926C96.667 33.6411 93.2931 31.5077 92.2932 28.7773C90.2545 29.57 87.9032 29.3253 85.9231 28.4739C82.2332 26.8918 80.188 22.5303 81.4777 18.681C82.5524 15.4808 85.415 13.2919 88.5871 12.4014C82.4026 12.3655 75.7621 16.815 76.788 23.6525C77.8171 30.5127 86.4865 33.6835 92.4984 32.2743C93.7946 34.7306 96.9015 35.3015 99.2952 34.0228C99.4776 34.163 99.66 34.3033 99.8456 34.4403C103.666 37.2458 108.111 39.0693 112.912 38.2407C114.735 37.9243 116.442 37.2653 118.012 36.3193C119.503 37.4415 121.467 37.7971 123.274 36.9293C124.62 36.2867 125.522 35.0993 125.844 33.7553C125.867 33.7553 125.89 33.7553 125.912 33.7553C127.818 33.7324 129.775 33.266 131.416 32.333C130.84 32.5059 130.241 32.6103 129.658 32.6788Z" fill="#3F4553"/>
<path d="M82.142 34.786C81.0022 34.9752 79.1491 35.0372 78.0972 33.9085C77.8887 33.6834 77.6054 33.9379 77.8659 34.163C77.9083 34.1989 77.9506 34.2315 77.9929 34.2641C77.8692 34.3 77.7389 34.3163 77.6021 34.3065C77.5989 34.3065 77.5989 34.3098 77.6021 34.313C77.7682 34.3685 77.9376 34.3848 78.1037 34.3522C78.1069 34.3554 78.1102 34.3587 78.1135 34.3587C77.9702 34.4533 77.7975 34.4925 77.6282 34.5479C77.6249 34.5479 77.6249 34.5512 77.6282 34.5544C77.8366 34.574 78.0548 34.5479 78.2274 34.437C78.247 34.45 78.2665 34.4566 78.2861 34.4696C78.1558 34.5707 78.0092 34.6458 77.8431 34.6849C77.8269 34.6882 77.8301 34.7143 77.8464 34.7143C78.0581 34.7241 78.26 34.6719 78.4294 34.5544C78.4652 34.574 78.5043 34.5903 78.5401 34.6099C78.4196 34.698 78.2958 34.7763 78.1558 34.8415C78.1428 34.848 78.1493 34.8709 78.1623 34.8709C78.3479 34.8774 78.5108 34.7828 78.6573 34.6719C78.7029 34.6947 78.7485 34.711 78.7974 34.7306C78.7355 34.7926 78.6638 34.8513 78.5954 34.91C78.5857 34.9198 78.5954 34.9328 78.6085 34.9328C78.7257 34.9035 78.8332 34.8545 78.9244 34.786C79.9698 35.2166 81.1943 35.2297 82.243 34.8513C82.3537 34.8056 82.269 34.7665 82.142 34.786Z" fill="#3F4553"/>
<path d="M86.8219 34.786C87.9618 34.9752 89.8149 35.0372 90.8668 33.9085C91.0752 33.6834 91.3585 33.9379 91.098 34.163C91.0557 34.1989 91.0133 34.2315 90.971 34.2641C91.098 34.3 91.225 34.3163 91.3618 34.3065C91.3651 34.3065 91.3651 34.3098 91.3618 34.313C91.1957 34.3685 91.0264 34.3848 90.8603 34.3522C90.857 34.3554 90.8538 34.3587 90.8505 34.3587C90.9938 34.4533 91.1664 34.4925 91.3357 34.5479C91.339 34.5479 91.339 34.5512 91.3357 34.5544C91.1273 34.574 90.9091 34.5479 90.7365 34.437C90.717 34.45 90.6974 34.4566 90.6779 34.4696C90.8082 34.5707 90.9547 34.6458 91.1208 34.6849C91.1371 34.6882 91.1338 34.7143 91.1175 34.7143C90.9059 34.7241 90.7039 34.6719 90.5346 34.5544C90.4988 34.574 90.4597 34.5903 90.4239 34.6099C90.5444 34.698 90.6681 34.7763 90.8082 34.8415C90.8212 34.848 90.8147 34.8709 90.8016 34.8709C90.616 34.8774 90.4532 34.7828 90.3066 34.6719C90.261 34.6947 90.2154 34.711 90.1698 34.7306C90.2317 34.7926 90.3034 34.8513 90.3718 34.91C90.3815 34.9198 90.3718 34.9328 90.3587 34.9328C90.2415 34.9035 90.134 34.8545 90.0428 34.786C88.9974 35.2166 87.7729 35.2297 86.721 34.8513C86.6135 34.8056 86.6949 34.7665 86.8219 34.786Z" fill="#3F4553"/>
<path d="M85.2001 37.1642C84.666 37.4415 84.1352 37.5524 83.5848 37.2197C83.5457 37.1968 83.5001 37.2523 83.5359 37.2849C84.0082 37.7057 84.8484 37.8134 85.3206 37.3208C85.3988 37.236 85.3011 37.112 85.2001 37.1642Z" fill="#3F4553"/>
<path d="M86.4213 39.0887C85.7536 39.2877 85.0958 39.3627 84.4444 39.3333C83.7931 39.3627 83.1352 39.2877 82.4676 39.0887C82.4513 39.0821 82.4383 39.1115 82.4546 39.118C83.0961 39.392 83.7703 39.5388 84.4444 39.5552C85.1186 39.5388 85.7927 39.392 86.4343 39.118C86.4506 39.1115 86.4375 39.0854 86.4213 39.0887Z" fill="#3F4553"/>
<path d="M81.383 36.3845C81.3277 36.3584 81.2691 36.3356 81.2104 36.3193C80.4647 36.1268 79.5821 35.7614 78.8037 35.8952C78.2533 35.9898 78.1263 36.6585 78.439 37.0532C78.7744 37.4773 79.4323 37.598 79.9403 37.6372C80.4516 37.6763 81.2528 37.7318 81.6338 37.3305C81.979 36.9684 81.7445 36.5607 81.383 36.3845Z" fill="#FBAD8B"/>
<path d="M87.4794 36.3845C87.5348 36.3584 87.5934 36.3356 87.6521 36.3193C88.3978 36.1268 89.2804 35.7614 90.0588 35.8952C90.6092 35.9898 90.7362 36.6585 90.4235 37.0532C90.0881 37.4773 89.4302 37.598 88.9222 37.6372C88.4109 37.6763 87.6097 37.7318 87.2287 37.3305C86.8835 36.9684 87.1212 36.5607 87.4794 36.3845Z" fill="#FBAD8B"/>
<path d="M74.5931 31.501C73.8213 31.3868 72.994 31.7065 73.1341 32.6232C73.2448 33.3539 74.0297 34.0813 75.2282 33.8628C74.9025 33.1059 74.6778 32.31 74.5931 31.501Z" fill="#F9CDB9"/>
<path d="M73.8472 32.2188C74.0589 32.0426 74.3879 31.9643 74.6712 32.01C74.6549 31.9219 74.6451 31.8306 74.6321 31.7425C74.2446 31.7066 73.7886 31.8665 73.5672 32.147C73.2219 32.5874 73.4825 33.0767 73.8635 33.3768C73.9189 33.4225 73.997 33.3507 73.9449 33.2953C73.6681 33.0017 73.476 32.5287 73.8472 32.2188Z" fill="#F8C4AB"/>
<path d="M74.8244 32.708C74.6225 32.5253 74.3587 32.4242 74.0558 32.4372C73.9874 32.4405 73.9614 32.5546 74.0395 32.5644C74.3163 32.6036 74.5541 32.7471 74.7006 32.9689C74.5313 33.0603 74.4075 33.2593 74.5801 33.4224C74.7169 33.5529 74.9188 33.5822 75.111 33.5626C75.0035 33.2821 74.9025 32.9983 74.8244 32.708Z" fill="#F8C4AB"/>
<path d="M74.5248 33.6507C74.5216 33.6475 74.5151 33.6507 74.5183 33.654C74.6421 33.9606 74.818 34.6783 74.3946 34.8251C74.1112 34.923 74.0852 34.5576 74.1275 34.3651C74.1666 34.189 74.2643 34.0063 74.3457 33.8497C74.3457 33.8497 74.1503 33.8073 73.9712 33.716C73.7269 33.9248 73.639 34.2347 73.6814 34.5609C73.7204 34.8577 73.9093 35.1839 74.2448 35.1937C74.5444 35.2035 74.7593 34.9458 74.8049 34.6718C74.857 34.3162 74.7137 33.9411 74.5248 33.6507Z" fill="#FDCA27"/>
<path d="M136.845 89.8311C135.015 87.6487 131.055 87.4726 128.456 87.2018C120.643 86.3863 112.632 86.5885 104.815 87.2214C100.924 87.5378 97.0514 88.0108 93.1955 88.6339C90.4044 89.0873 87.2878 89.4037 84.5 90.2976C81.7122 89.4037 78.5955 89.0841 75.8045 88.6339C71.9518 88.0076 68.0763 87.5346 64.1845 87.2214C56.3684 86.5885 48.3536 86.3863 40.5439 87.2018C37.9483 87.4726 33.9849 87.6487 32.1546 89.8311C30.3862 91.9384 32.5682 94.4927 34.2487 95.8334C36.5707 97.6863 39.5181 98.5997 42.3319 99.3989C45.8654 100.397 49.4804 101.076 53.1149 101.591C69.3823 103.888 78.2145 102.195 86.7178 102.09C87.0435 102.504 87.3496 102.935 87.6297 103.382C96.2503 103.437 107.323 102.749 115.882 101.591C119.52 101.098 123.131 100.4 126.665 99.3989C129.482 98.6029 132.426 97.6896 134.748 95.8334C136.429 94.4927 138.611 91.9384 136.845 89.8311Z" fill="#93BFA8"/>
<path d="M125.303 91.3416C125.574 90.9958 127.212 90.5684 127.857 90.2814C124.818 90.526 121.767 90.8914 118.735 91.2046C112.967 91.7983 107.193 93.3282 101.728 95.2431C99.1129 96.1597 96.5042 97.1221 93.9054 98.0876C91.8471 98.851 89.8117 99.6861 87.8804 100.727C88.1768 100.635 88.4732 100.544 88.7695 100.456C91.8504 99.5491 104.405 92.7475 127.652 91.9092C127.114 91.7917 125.199 91.4753 125.303 91.3416Z" fill="#66A986"/>
<path d="M44.0384 90.8619C43.7681 90.5161 42.1299 90.0888 41.4851 89.8017C44.5236 90.0464 47.5752 90.4117 50.6072 90.7249C56.3749 91.3186 62.149 92.8485 67.6138 94.7634C70.229 95.68 72.8376 96.6424 75.4365 97.608C77.4948 98.3713 79.5302 99.2064 81.4614 100.247C81.1651 100.156 80.8687 100.064 80.5724 99.9763C77.4915 99.0694 64.9368 92.2679 41.6903 91.4295C42.2244 91.3121 44.1393 90.9956 44.0384 90.8619Z" fill="#66A986"/>
<path d="M92.3585 98.0746C91.0493 97.5494 89.6652 97.5364 88.3918 98.0811C86.2163 99.0174 83.5491 97.582 81.2889 97.8398C79.2079 98.0779 77.941 100.449 79.5335 101.963C79.9178 102.328 83.7803 103.731 89.8997 100.874C90.5706 100.56 91.2252 100.381 91.984 100.391C92.1599 100.394 92.326 100.56 92.5116 100.541C92.9089 100.492 93.2346 100.42 93.4561 100.035C93.9771 99.1283 93.1076 98.3747 92.3585 98.0746Z" fill="#FDB597"/>
<path d="M77.0844 102.886C78.1884 102.009 79.5139 101.598 80.885 101.758C83.2363 102.032 85.3825 99.8916 87.6231 99.4904C89.6846 99.1218 91.5768 101.03 90.4825 102.942C90.2187 103.402 86.9164 105.852 80.2369 104.866C79.5041 104.759 78.8267 104.775 78.1037 105C77.9376 105.052 77.8236 105.261 77.638 105.294C77.2439 105.362 76.9117 105.385 76.5893 105.082C75.8338 104.361 76.4526 103.389 77.0844 102.886Z" fill="#FDBCA0"/>
<path d="M121.467 49.2959C120.714 49.684 119.923 50.1212 119.184 50.5289C119.575 50.2092 121.744 47.9975 122.587 47.4528C122.678 47.394 122.463 46.497 120.245 48.2715C119.584 48.8 118.803 49.335 118.181 49.9124C118.972 48.4086 119.633 46.8851 120.669 45.5085C120.711 45.4531 120.698 45.3911 120.662 45.3487C120.451 45.1823 119.92 45.3715 119.682 45.626C119.259 46.0761 117.65 47.8181 116.868 49.6547C116.881 49.0251 116.826 48.0041 116.38 47.7953C116.1 47.6615 115.634 47.8377 115.334 47.8605C114.745 47.9029 113.973 47.9877 113.423 47.7529C113.341 47.7202 113.136 47.6941 113.211 47.9649C113.462 48.8522 114.699 48.9631 115.468 49.1588C115.728 49.7917 114.996 50.8291 114.533 51.1422C113.781 51.6544 112.683 51.152 112.872 50.1473C113.038 49.2632 113.566 48.862 113.1 47.9943C112.947 47.7072 112.289 47.4462 112.436 47.9095C112.814 49.0936 111.729 50.0886 111.589 51.2336C111.478 52.1404 111.957 52.9462 112.439 53.6736C112.41 53.7487 112.387 53.8237 112.361 53.8955C111.706 55.0307 111.198 56.2279 110.83 57.4805C111.67 57.7578 114.139 57.5817 114.129 57.5621C114.139 57.5817 114.426 55.8266 115.084 55.0861C115.803 54.2739 116.709 53.6475 117.575 53.0082C119.395 51.6609 121.245 50.3528 123.121 49.0806C123.229 49.012 123.141 48.4314 121.467 49.2959Z" fill="#FDBCA0"/>
<path d="M47.7314 49.2959C48.4837 49.684 49.2751 50.1212 50.0144 50.5289C49.6236 50.2092 47.4546 47.9975 46.6111 47.4528C46.5199 47.394 46.7349 46.497 48.9527 48.2715C49.6138 48.8 50.3954 49.335 51.0175 49.9124C50.2261 48.4086 49.565 46.8851 48.5293 45.5085C48.487 45.4531 48.5 45.3911 48.5358 45.3487C48.7475 45.1823 49.2784 45.3715 49.5161 45.626C49.9395 46.0761 51.5483 47.8181 52.3299 49.6547C52.3169 49.0251 52.3723 48.0041 52.8184 47.7953C53.0985 47.6615 53.5642 47.8377 53.8638 47.8605C54.4533 47.9029 55.2251 47.9877 55.7755 47.7529C55.857 47.7202 56.0621 47.6941 55.9872 47.9649C55.7365 48.8522 54.4989 48.9631 53.7303 49.1588C53.4698 49.7917 54.2025 50.8291 54.665 51.1422C55.4173 51.6544 56.5148 51.152 56.3259 50.1473C56.1598 49.2632 55.6322 48.862 56.098 47.9943C56.251 47.7072 56.9089 47.4462 56.7623 47.9095C56.3845 49.0936 57.469 50.0886 57.6091 51.2336C57.7198 52.1404 57.2411 52.9462 56.7591 53.6736C56.7884 53.7487 56.8112 53.8237 56.8372 53.8955C57.4918 55.0307 57.9999 56.2279 58.3679 57.4805C57.5277 57.7578 55.0591 57.5817 55.0688 57.5621C55.0591 57.5817 54.7725 55.8266 54.1146 55.0861C53.3949 54.2739 52.4895 53.6475 51.6232 53.0082C49.8027 51.6609 47.9529 50.3528 46.077 49.0806C45.9695 49.012 46.0575 48.4314 47.7314 49.2959Z" fill="#FDBCA0"/>
<path d="M109.951 56.3258C108.73 59.4803 104.588 71.1261 102.858 76.0649C101.829 73.4226 99.0479 61.9497 96.7063 48.6304C95.9768 44.4908 91.3164 45.0812 88.8218 45.4955C88.6426 48.2749 85.9493 55.98 84.5033 55.9963C83.0574 55.98 80.1914 48.8196 80.1849 45.4955C77.6935 45.0812 73.0299 44.4908 72.3004 48.6304C69.9555 61.9497 67.1776 73.4259 66.1484 76.0649C64.4158 71.1261 60.2765 59.4803 59.0553 56.3258C57.4888 57.0663 55.7562 57.4741 54.0269 57.5752C55.3654 61.1407 59.7848 86.3896 66.2982 86.3896C69.1218 86.3896 70.9098 83.3852 73.7887 72.2548C73.932 74.1142 73.9809 77.6862 73.9092 81.4409C73.8571 84.1452 71.991 87.2703 69.4931 86.6669C68.9883 86.5462 68.3304 86.9278 68.9557 87.6063C69.1251 87.7923 69.3433 87.9293 69.568 88.0337C73.5575 89.9257 73.7138 92.754 76.0684 94.4014C77.4916 95.3963 79.2437 95.7095 80.9144 96.0487C82.7252 96.4141 84.5913 96.6881 86.4346 96.4108C89.4992 95.9509 91.8798 93.899 94.4168 92.294C95.8335 91.3969 97.273 90.6793 98.9372 90.4346C103.22 89.805 102.936 86.7778 102.041 86.8397C99.0414 87.0453 95.091 83.2155 95.0682 79.0009C95.0519 76.1954 95.1073 73.7064 95.218 72.2548C98.0969 83.3852 99.8849 86.3896 102.708 86.3896C109.222 86.3896 113.641 61.1407 114.98 57.5752C113.25 57.4741 111.518 57.063 109.951 56.3258Z" fill="#F2EDE4"/>
<path d="M92.7203 67.3517C92.6877 67.3746 92.6616 67.3974 92.6356 67.4202C92.1047 67.9389 91.6911 68.562 91.17 69.0905C90.649 69.6157 89.9748 70.056 89.2355 70.0528C87.4606 70.043 86.5715 67.9096 85.5033 66.8233C83.8619 65.1596 82.2694 68.9502 81.0481 69.6939C79.7943 70.4573 78.9443 69.9973 78.0194 69.0937C77.4527 68.5392 76.9707 67.9161 76.4464 67.3224C76.3096 67.1658 75.9969 67.3322 76.0816 67.5344C76.6939 69.0089 78.078 71.4555 79.905 71.4946C81.0253 71.5175 81.9437 70.8748 82.6797 70.0854C83.0412 69.6972 84.0378 67.6127 84.6859 67.8867C84.8064 67.9389 84.8911 68.0466 84.9725 68.151C85.2949 68.575 85.5945 69.0219 85.9397 69.4265C86.1189 69.6352 86.6367 69.981 86.6367 70.2681C87.3694 71.0151 88.3758 71.6023 89.4147 71.4751C90.4764 71.3446 91.3166 70.5127 91.9321 69.6352C92.3685 69.0122 92.7365 68.3402 93.0264 67.6355C93.0687 67.5344 93.1045 67.4072 93.0296 67.3256C92.9482 67.2408 92.8245 67.28 92.7203 67.3517Z" fill="#D9C9AC"/>
<g clip-path="url(#clip2_1_2329)">
<path d="M152.49 84.2946L163.635 80.5589L158.048 64.1592L146.903 67.8949C146.466 68.0406 146.229 68.5101 146.38 68.9431L151.433 83.7725C151.58 84.2056 152.053 84.4403 152.49 84.2946Z" fill="#3F4553"/>
<path d="M152.498 83.9708L163.921 80.1421L158.538 64.3454L147.115 68.1741C146.833 68.2672 146.682 68.5708 146.776 68.8541L151.812 83.6349C151.91 83.9142 152.216 84.0639 152.498 83.9708Z" fill="#DDDDE3"/>
<path d="M152.739 83.89L164.162 80.0613L158.779 64.2646L147.356 68.0933C147.074 68.1864 146.923 68.49 147.017 68.7733L152.053 83.5541C152.151 83.8334 152.457 83.9872 152.739 83.89Z" fill="#E2E5FF"/>
<path d="M153.355 84.0032L164.5 80.2675L158.913 63.8718L147.768 67.6075C147.331 67.7532 147.094 68.2227 147.245 68.6557L152.298 83.4851C152.445 83.9182 152.918 84.1489 153.355 84.0032Z" fill="#4E5567"/>
<path d="M158.289 64.0813L158.049 64.1616L163.636 80.5615L163.876 80.4812L158.289 64.0813Z" fill="#3F4553"/>
<path d="M159.881 76.892L160.13 76.3659L160.652 76.633L156.571 64.657C156.497 64.4465 156.314 64.4627 156.102 64.5356C155.889 64.6084 155.73 64.7056 155.804 64.916L159.881 76.892Z" fill="#93BFA8"/>
<path d="M134.838 68.4296L142.34 59.6092L140.823 58.3411L133.322 67.1614L134.838 68.4296Z" fill="#3F4553"/>
<path d="M133.321 67.1584L134.835 68.4253L132.647 69.6192C132.574 69.6597 132.476 69.5747 132.5 69.4978L133.321 67.1584Z" fill="#F2EDE4"/>
<path d="M132.651 69.6231L133.243 69.2994L132.729 68.8663L132.509 69.4977C132.48 69.5746 132.578 69.6596 132.651 69.6231Z" fill="#3F4553"/>
<path d="M134.336 68.0094L141.837 59.1891L141.322 58.7586L133.821 67.5789L134.336 68.0094Z" fill="#4E5567"/>
</g>
<g clip-path="url(#clip3_1_2329)">
<path d="M52.0028 -16.6606C42.3335 -16.6606 34.5 -8.82713 34.5 0.842112C34.5 10.5058 42.3335 18.3449 52.0028 18.3449C61.6665 18.3449 69.5055 10.5114 69.5055 0.842112C69.5 -8.82713 61.6665 -16.6606 52.0028 -16.6606ZM52.0028 15.3846C43.9708 15.3846 37.4603 8.87409 37.4603 0.842112C37.4603 -7.18986 43.9708 -13.7003 52.0028 -13.7003C60.0347 -13.7003 66.5452 -7.18986 66.5452 0.842112C66.5452 8.87409 60.0347 15.3846 52.0028 15.3846Z" fill="#808AFF"/>
<path d="M65.4209 6.44907C68.5195 -0.960863 65.0244 -9.47969 57.6145 -12.5783C50.2046 -15.6769 41.6857 -12.1818 38.5872 -4.77189C35.4886 2.63804 38.9836 11.1569 46.3936 14.2555C53.8035 17.354 62.3223 13.859 65.4209 6.44907Z" fill="#AEB4FC"/>
<path d="M65.2383 0.868959C65.2383 -0.150888 63.6506 -0.156401 63.6506 0.868959C63.6506 1.89432 65.2383 1.89432 65.2383 0.868959Z" fill="#808AFF"/>
<path d="M51.969 14.0777C52.9888 14.0777 52.9943 12.49 51.969 12.49C50.9491 12.49 50.9436 14.0777 51.969 14.0777Z" fill="#808AFF"/>
<path d="M38.7618 0.809143C38.7618 1.82899 40.3495 1.8345 40.3495 0.809143C40.3495 -0.210702 38.7618 -0.216215 38.7618 0.809143Z" fill="#808AFF"/>
<path d="M58.2544 5.09236C58.1607 5.09236 58.067 5.07031 57.9843 5.01518L51.7274 1.29413C51.5675 1.20041 51.4683 1.024 51.4683 0.836573V-9.16343C51.4683 -9.4556 51.7053 -9.69264 51.9975 -9.69264C52.2897 -9.69264 52.5267 -9.4556 52.5267 -9.16343V0.53889L58.5245 4.10559C58.7781 4.25443 58.8608 4.57968 58.7064 4.83327C58.6127 4.99865 58.4363 5.09236 58.2544 5.09236Z" fill="#808AFF"/>
</g>
<path d="M17.1207 36.7459L16.7715 34.7649L14.7463 35.11C14.425 34.1851 13.9013 33.3706 13.2239 32.7079L14.4111 31.0444L12.749 29.8917L11.5688 31.5483C10.7168 31.1342 9.76706 30.9064 8.77541 30.9133L8.41925 28.9046L6.415 29.2498L6.76417 31.2515C5.82839 31.569 5.00434 32.0867 4.33392 32.7562L2.65091 31.5828L1.48467 33.2256L3.1607 34.3921C2.74169 35.2343 2.51124 36.173 2.51822 37.1531L0.5 37.4983L0.849173 39.4793L2.87438 39.1342C3.19562 40.0591 3.71938 40.8736 4.39677 41.5362L3.20959 43.1997L4.87165 44.3525L6.05186 42.6959C6.90384 43.11 7.85359 43.3378 8.84524 43.3309L9.2014 45.3395L11.2057 44.9944L10.8565 42.9927C11.7923 42.6752 12.6163 42.1575 13.2867 41.4879L14.9697 42.6614L16.136 41.0186L14.46 39.852C14.879 39.0099 15.1094 38.0712 15.1024 37.091L17.1207 36.7459ZM9.13157 38.9616C8.105 39.1411 7.12731 38.4577 6.94574 37.4431C6.76417 36.4284 7.45553 35.462 8.4821 35.2826C9.50867 35.1031 10.4864 35.7865 10.6679 36.8011C10.8495 37.8158 10.1651 38.7821 9.13157 38.9616Z" fill="#9BA3FF"/>
<path d="M36.2278 32.7492V30.2574H33.6788C33.4903 29.0564 33.0224 27.952 32.338 26.9994L34.1467 25.2117L32.3659 23.4515L30.5642 25.2324C29.6074 24.549 28.4971 24.0727 27.282 23.8726V21.3394H24.7609V23.8588C23.5458 24.0451 22.4215 24.5076 21.4647 25.1841L19.656 23.3963L17.8752 25.1564L19.677 26.9373C18.9856 27.8829 18.5037 28.9804 18.3012 30.1815H15.7383V32.6733H18.2872C18.4758 33.8743 18.9437 34.9787 19.6281 35.9313L17.8194 37.719L19.6001 39.4792L21.4019 37.6983C22.3586 38.3817 23.469 38.8579 24.6841 39.0581V41.5913H27.2051V39.0719C28.4203 38.8855 29.5376 38.4231 30.5013 37.7466L32.31 39.5344L34.0908 37.7742L32.2891 35.9934C32.9805 35.0477 33.4623 33.9502 33.6648 32.7492H36.2278ZM25.983 33.7846C24.6911 33.7846 23.6366 32.7492 23.6366 31.4653C23.6366 30.1884 24.6841 29.1461 25.983 29.1461C27.275 29.1461 28.3295 30.1815 28.3295 31.4653C28.3225 32.7423 27.275 33.7846 25.983 33.7846Z" fill="#AEB4FC"/>
<g opacity="0.3">
<path d="M154.495 14.2365L135.766 10.027C135.582 9.987 135.466 9.80355 135.509 9.6201L137.867 -0.880136C137.907 -1.06359 138.091 -1.18033 138.274 -1.13697L157.003 3.0758C157.187 3.11582 157.303 3.29928 157.26 3.48273L154.898 13.983C154.858 14.1631 154.678 14.2798 154.495 14.2365Z" fill="#ECECEC"/>
<path d="M135.819 9.78018C135.769 9.77018 135.739 9.72014 135.753 9.67345L138.114 -0.826787C138.124 -0.87682 138.174 -0.90684 138.221 -0.893498L156.95 3.31927C157 3.32928 157.03 3.37931 157.017 3.42601L154.655 13.9262C154.645 13.9763 154.595 14.0063 154.548 13.993L135.819 9.78018Z" fill="#F5F4F5"/>
<path d="M154.367 2.47996L140.914 -0.545364L140.859 -0.301304L154.312 2.72402L154.367 2.47996Z" fill="#706F6E"/>
<path d="M139.605 0.96433L138.985 0.824239C138.908 0.807561 138.858 0.730844 138.875 0.650791L138.971 0.213837C138.988 0.13712 139.065 0.0870878 139.145 0.103765L139.765 0.243857C139.842 0.260534 139.892 0.337252 139.875 0.417304L139.779 0.854259C139.759 0.930976 139.682 0.981008 139.605 0.96433Z" fill="#585857"/>
<path d="M139.011 0.700877C139.001 0.697541 138.994 0.687535 138.998 0.677528L139.094 0.240574C139.098 0.230568 139.108 0.223896 139.118 0.227232L139.738 0.367324C139.748 0.37066 139.755 0.380666 139.752 0.390673L139.655 0.827626C139.652 0.837633 139.642 0.844304 139.632 0.840968L139.011 0.700877Z" fill="#5E5E5D"/>
<path d="M140.742 1.21793L140.122 1.07784C140.045 1.06116 139.995 0.984445 140.012 0.904392L140.109 0.467439C140.125 0.390722 140.202 0.340689 140.282 0.357366L140.902 0.497459C140.979 0.514137 141.029 0.590854 141.012 0.670907L140.916 1.10786C140.896 1.18791 140.819 1.23461 140.742 1.21793Z" fill="#585857"/>
<path d="M140.149 0.957591C140.139 0.954255 140.132 0.944248 140.135 0.934241L140.232 0.497288C140.235 0.487281 140.245 0.48061 140.255 0.483946L140.876 0.624038C140.886 0.627374 140.892 0.63738 140.889 0.647387L140.792 1.08434C140.789 1.09435 140.779 1.10102 140.769 1.09768L140.149 0.957591Z" fill="#5E5E5D"/>
<path d="M141.88 1.47466L141.259 1.33457C141.183 1.31789 141.133 1.24117 141.149 1.16112L141.246 0.724169C141.263 0.647451 141.339 0.597418 141.42 0.614096L142.04 0.754188C142.117 0.770866 142.167 0.847583 142.15 0.927636L142.053 1.36459C142.033 1.44131 141.957 1.49134 141.88 1.47466Z" fill="#585857"/>
<path d="M141.286 1.21119C141.276 1.20786 141.269 1.19785 141.273 1.18784L141.37 0.750889C141.373 0.740883 141.383 0.734211 141.393 0.737547L142.013 0.877639C142.023 0.880975 142.03 0.890981 142.027 0.900988L141.93 1.33794C141.927 1.34795 141.917 1.35462 141.907 1.35128L141.286 1.21119Z" fill="#5E5E5D"/>
<path d="M143.017 1.72803L142.397 1.58794C142.32 1.57126 142.27 1.49455 142.287 1.41449L142.384 0.977539C142.4 0.900822 142.477 0.85079 142.557 0.867468L143.177 1.00756C143.254 1.02424 143.304 1.10095 143.287 1.18101L143.191 1.61796C143.171 1.69801 143.094 1.74805 143.017 1.72803Z" fill="#585857"/>
<path d="M142.424 1.46792C142.414 1.46459 142.407 1.45458 142.41 1.44457L142.507 1.00762C142.51 0.997612 142.52 0.99094 142.53 0.994276L143.151 1.13437C143.161 1.1377 143.167 1.14771 143.164 1.15772L143.067 1.59467C143.064 1.60468 143.054 1.61135 143.044 1.60801L142.424 1.46792Z" fill="#5E5E5D"/>
<path d="M144.151 1.98499L143.531 1.8449C143.454 1.82822 143.404 1.7515 143.421 1.67145L143.518 1.2345C143.534 1.15778 143.611 1.10775 143.691 1.12443L144.311 1.26452C144.388 1.28119 144.438 1.35791 144.421 1.43796L144.325 1.87492C144.308 1.95497 144.231 2.00167 144.151 1.98499Z" fill="#585857"/>
<path d="M143.561 1.72486C143.551 1.72153 143.544 1.71152 143.548 1.70152L143.645 1.26456C143.648 1.25455 143.658 1.24788 143.668 1.25122L144.288 1.39131C144.298 1.39465 144.305 1.40465 144.302 1.41466L144.205 1.85161C144.202 1.86162 144.192 1.86829 144.182 1.86496L143.561 1.72486Z" fill="#5E5E5D"/>
<path d="M145.289 2.24171L144.668 2.10161C144.592 2.08494 144.542 2.00822 144.558 1.92817L144.655 1.49121C144.672 1.4145 144.748 1.36446 144.829 1.38114L145.449 1.52123C145.526 1.53791 145.576 1.61463 145.559 1.69468L145.462 2.13163C145.446 2.20835 145.369 2.25838 145.289 2.24171Z" fill="#585857"/>
<path d="M144.698 1.97823C144.688 1.9749 144.682 1.96489 144.685 1.95489L144.782 1.51793C144.785 1.50793 144.795 1.50126 144.805 1.50459L145.425 1.64468C145.435 1.64802 145.442 1.65802 145.439 1.66803L145.342 2.10499C145.339 2.11499 145.329 2.12166 145.319 2.11833L144.698 1.97823Z" fill="#5E5E5D"/>
<path d="M146.426 2.49531L145.806 2.35521C145.729 2.33854 145.679 2.26182 145.696 2.18177L145.793 1.74481C145.809 1.6681 145.886 1.61806 145.966 1.63474L146.586 1.77483C146.663 1.79151 146.713 1.86823 146.696 1.94828L146.6 2.38523C146.583 2.46529 146.503 2.51532 146.426 2.49531Z" fill="#585857"/>
<path d="M145.836 2.23519C145.826 2.23186 145.819 2.22185 145.822 2.21184L145.919 1.77489C145.922 1.76488 145.933 1.75821 145.943 1.76155L146.563 1.90164C146.573 1.90498 146.58 1.91498 146.576 1.92499L146.48 2.36194C146.476 2.37195 146.466 2.37862 146.456 2.37529L145.836 2.23519Z" fill="#5E5E5D"/>
<path d="M147.564 2.75225L146.943 2.61216C146.867 2.59548 146.817 2.51876 146.833 2.43871L146.93 2.00176C146.947 1.92504 147.024 1.87501 147.104 1.89168L147.724 2.03177C147.801 2.04845 147.851 2.12517 147.834 2.20522L147.737 2.64218C147.717 2.72223 147.641 2.76893 147.564 2.75225Z" fill="#585857"/>
<path d="M146.973 2.49191C146.963 2.48857 146.957 2.47857 146.96 2.46856L147.057 2.03161C147.06 2.0216 147.07 2.01493 147.08 2.01826L147.7 2.15836C147.71 2.16169 147.717 2.1717 147.714 2.1817L147.617 2.61866C147.614 2.62866 147.604 2.63533 147.594 2.632L146.973 2.49191Z" fill="#5E5E5D"/>
<path d="M148.701 3.00898L148.081 2.86889C148.004 2.85221 147.954 2.77549 147.971 2.69544L148.068 2.25848C148.084 2.18177 148.161 2.13174 148.241 2.14841L148.861 2.2885C148.938 2.30518 148.988 2.3819 148.972 2.46195L148.875 2.89891C148.855 2.97562 148.778 3.02566 148.701 3.00898Z" fill="#585857"/>
<path d="M148.107 2.74551C148.097 2.74217 148.091 2.73217 148.094 2.72216L148.191 2.28521C148.194 2.2752 148.204 2.26853 148.214 2.27186L148.834 2.41196C148.844 2.41529 148.851 2.4253 148.848 2.4353L148.751 2.87226C148.748 2.88226 148.738 2.88894 148.728 2.8856L148.107 2.74551Z" fill="#5E5E5D"/>
<path d="M149.838 3.26258L149.218 3.12249C149.141 3.10581 149.091 3.02909 149.108 2.94904L149.205 2.51209C149.221 2.43537 149.298 2.38534 149.378 2.40201L149.999 2.54211C150.075 2.55878 150.125 2.6355 150.109 2.71555L150.012 3.15251C149.992 3.23256 149.915 3.28259 149.838 3.26258Z" fill="#585857"/>
<path d="M149.245 3.00245C149.235 2.99911 149.228 2.98911 149.231 2.9791L149.328 2.54215C149.331 2.53214 149.342 2.52547 149.352 2.52881L149.972 2.6689C149.982 2.67223 149.989 2.68224 149.985 2.69225L149.889 3.1292C149.885 3.13921 149.875 3.14588 149.865 3.14254L149.245 3.00245Z" fill="#5E5E5D"/>
<path d="M150.976 3.51931L150.356 3.37922C150.279 3.36254 150.229 3.28582 150.245 3.20577L150.342 2.76881C150.359 2.6921 150.436 2.64207 150.516 2.65874L151.136 2.79883C151.213 2.81551 151.263 2.89223 151.246 2.97228L151.149 3.40924C151.129 3.48929 151.053 3.53599 150.976 3.51931Z" fill="#585857"/>
<path d="M150.382 3.25918C150.372 3.25584 150.365 3.24584 150.368 3.23583L150.465 2.79888C150.469 2.78887 150.479 2.7822 150.489 2.78554L151.109 2.92563C151.119 2.92896 151.126 2.93897 151.122 2.94898L151.026 3.38593C151.022 3.39594 151.012 3.40261 151.002 3.39927L150.382 3.25918Z" fill="#5E5E5D"/>
<path d="M152.113 3.77625L151.493 3.63616C151.416 3.61948 151.366 3.54276 151.383 3.46271L151.479 3.02576C151.496 2.94904 151.573 2.89901 151.653 2.91569L152.273 3.05578C152.35 3.07245 152.4 3.14917 152.383 3.22922L152.287 3.66618C152.266 3.7429 152.19 3.79293 152.113 3.77625Z" fill="#585857"/>
<path d="M151.519 3.51255C151.509 3.50922 151.503 3.49921 151.506 3.4892L151.603 3.05225C151.606 3.04224 151.616 3.03557 151.626 3.03891L152.247 3.179C152.257 3.18234 152.263 3.19234 152.26 3.20235L152.163 3.6393C152.16 3.64931 152.15 3.65598 152.14 3.65264L151.519 3.51255Z" fill="#5E5E5D"/>
<path d="M153.251 4.02962L152.63 3.88953C152.553 3.87285 152.503 3.79614 152.52 3.71608L152.617 3.27913C152.633 3.20241 152.71 3.15238 152.79 3.16906L153.411 3.30915C153.487 3.32583 153.537 3.40255 153.521 3.4826L153.424 3.91955C153.404 3.9996 153.327 4.04964 153.251 4.02962Z" fill="#585857"/>
<path d="M152.657 3.76951C152.647 3.76617 152.64 3.75617 152.644 3.74616L152.74 3.30921C152.744 3.2992 152.754 3.29253 152.764 3.29587L153.384 3.43596C153.394 3.43929 153.401 3.4493 153.397 3.45931L153.301 3.89626C153.297 3.90627 153.287 3.91294 153.277 3.9096L152.657 3.76951Z" fill="#5E5E5D"/>
<path d="M154.388 4.28635L153.768 4.14626C153.691 4.12958 153.641 4.05287 153.658 3.97281L153.754 3.53586C153.771 3.45914 153.848 3.40911 153.928 3.42579L154.548 3.56588C154.625 3.58256 154.675 3.65927 154.658 3.73933L154.562 4.17628C154.542 4.25633 154.465 4.30303 154.388 4.28635Z" fill="#585857"/>
<path d="M153.794 4.02645C153.784 4.02312 153.778 4.01311 153.781 4.0031L153.878 3.56615C153.881 3.55614 153.891 3.54947 153.901 3.55281L154.522 3.6929C154.532 3.69624 154.538 3.70624 154.535 3.71625L154.438 4.1532C154.435 4.16321 154.425 4.16988 154.415 4.16655L153.794 4.02645Z" fill="#5E5E5D"/>
<path d="M155.522 4.5433L154.902 4.4032C154.825 4.38653 154.775 4.30981 154.792 4.22976L154.888 3.7928C154.905 3.71609 154.982 3.66605 155.062 3.68273L155.682 3.82282C155.759 3.8395 155.809 3.91622 155.792 3.99627L155.695 4.43322C155.679 4.50994 155.602 4.55997 155.522 4.5433Z" fill="#585857"/>
<path d="M154.932 4.27983C154.922 4.27649 154.915 4.26648 154.919 4.25648L155.015 3.81952C155.019 3.80952 155.029 3.80285 155.039 3.80618L155.659 3.94627C155.669 3.94961 155.676 3.95962 155.672 3.96962L155.576 4.40657C155.572 4.41658 155.562 4.42325 155.552 4.41992L154.932 4.27983Z" fill="#5E5E5D"/>
<path d="M138.971 0.974454L139.738 1.1479C139.825 1.16792 139.882 1.25464 139.862 1.3447L139.692 2.09853C139.672 2.18525 139.585 2.24195 139.495 2.22194L138.728 2.04849C138.641 2.02848 138.584 1.94176 138.604 1.8517L138.774 1.09787C138.794 1.01114 138.881 0.954441 138.971 0.974454Z" fill="#585857"/>
<path d="M138.758 1.92484C138.738 1.9215 138.725 1.89815 138.728 1.87814L138.898 1.12431C138.901 1.1043 138.925 1.09096 138.945 1.09429L139.712 1.26774C139.732 1.27107 139.745 1.29442 139.742 1.31444L139.572 2.06826C139.569 2.08828 139.545 2.10162 139.525 2.09828L138.758 1.92484Z" fill="#5E5E5D"/>
<path d="M140.282 1.27105L141.049 1.4445C141.136 1.46451 141.192 1.55124 141.172 1.6413L141.002 2.39512C140.982 2.48185 140.896 2.53855 140.806 2.51854L140.038 2.34509C139.952 2.32508 139.895 2.23836 139.915 2.1483L140.085 1.39447C140.105 1.30441 140.192 1.25104 140.282 1.27105Z" fill="#585857"/>
<path d="M140.069 2.2217C140.049 2.21836 140.035 2.19501 140.039 2.175L140.209 1.42117C140.212 1.40116 140.235 1.38782 140.255 1.39115L141.023 1.5646C141.043 1.56793 141.056 1.59128 141.053 1.6113L140.882 2.36512C140.879 2.38514 140.856 2.39848 140.836 2.39514L140.069 2.2217Z" fill="#5E5E5D"/>
<path d="M141.593 1.56485L142.361 1.73829C142.447 1.75831 142.504 1.84503 142.484 1.93509L142.314 2.68892C142.294 2.77564 142.207 2.83235 142.117 2.81233L141.35 2.63889C141.263 2.61887 141.206 2.53215 141.226 2.44209L141.397 1.68826C141.417 1.60154 141.507 1.54483 141.593 1.56485Z" fill="#585857"/>
<path d="M141.38 2.51523C141.36 2.5119 141.346 2.48855 141.35 2.46853L141.52 1.7147C141.523 1.69469 141.546 1.68135 141.566 1.68468L142.334 1.85813C142.354 1.86147 142.367 1.88482 142.364 1.90483L142.193 2.65866C142.19 2.67867 142.167 2.69201 142.147 2.68868L141.38 2.51523Z" fill="#5E5E5D"/>
<path d="M142.904 1.85838L143.671 2.03183C143.758 2.05184 143.815 2.13857 143.795 2.22862L143.624 2.98245C143.604 3.06918 143.518 3.12588 143.428 3.10587L142.66 2.93242C142.574 2.91241 142.517 2.82568 142.537 2.73562L142.707 1.9818C142.727 1.89507 142.817 1.83837 142.904 1.85838Z" fill="#585857"/>
<path d="M142.691 2.8121C142.671 2.80877 142.657 2.78542 142.661 2.76541L142.831 2.01158C142.834 1.99157 142.857 1.97822 142.877 1.98156L143.645 2.15501C143.665 2.15834 143.678 2.18169 143.675 2.2017L143.505 2.95553C143.501 2.97555 143.478 2.98889 143.458 2.98555L142.691 2.8121Z" fill="#5E5E5D"/>
<path d="M144.215 2.15519L144.982 2.32864C145.068 2.34865 145.125 2.43538 145.105 2.52544L144.935 3.27927C144.915 3.36599 144.828 3.42269 144.738 3.40268L143.971 3.22923C143.884 3.20922 143.828 3.1225 143.848 3.03244L144.018 2.27861C144.041 2.18855 144.128 2.13518 144.215 2.15519Z" fill="#585857"/>
<path d="M144.001 3.10562C143.981 3.10229 143.968 3.07894 143.971 3.05893L144.141 2.3051C144.145 2.28508 144.168 2.27174 144.188 2.27508L144.955 2.44852C144.975 2.45186 144.989 2.47521 144.985 2.49522L144.815 3.24905C144.812 3.26906 144.788 3.28241 144.768 3.27907L144.001 3.10562Z" fill="#5E5E5D"/>
<path d="M145.526 2.44877L146.293 2.62222C146.379 2.64223 146.436 2.72896 146.416 2.81902L146.246 3.57285C146.226 3.65957 146.139 3.71627 146.049 3.69626L145.282 3.52281C145.195 3.5028 145.139 3.41608 145.159 3.32602L145.329 2.57219C145.352 2.48546 145.439 2.42876 145.526 2.44877Z" fill="#585857"/>
<path d="M145.312 3.39937C145.292 3.39604 145.279 3.37269 145.282 3.35267L145.452 2.59884C145.455 2.57883 145.479 2.56549 145.499 2.56882L146.266 2.74227C146.286 2.74561 146.299 2.76896 146.296 2.78897L146.126 3.5428C146.122 3.56281 146.099 3.57615 146.079 3.57282L145.312 3.39937Z" fill="#5E5E5D"/>
<path d="M146.837 2.74537L147.604 2.91882C147.691 2.93883 147.747 3.02556 147.727 3.11562L147.557 3.86944C147.537 3.95617 147.45 4.01287 147.36 3.99286L146.593 3.81941C146.506 3.7994 146.45 3.71267 146.47 3.62262L146.64 2.86879C146.663 2.77873 146.75 2.72536 146.837 2.74537Z" fill="#585857"/>
<path d="M146.623 3.69602C146.603 3.69268 146.59 3.66933 146.593 3.64932L146.763 2.89549C146.766 2.87548 146.79 2.86214 146.81 2.86547L147.577 3.03892C147.597 3.04225 147.61 3.0656 147.607 3.08562L147.437 3.83944C147.433 3.85946 147.41 3.8728 147.39 3.86946L146.623 3.69602Z" fill="#5E5E5D"/>
<path d="M148.151 3.03917L148.918 3.21261C149.005 3.23263 149.061 3.31935 149.041 3.40941L148.871 4.16324C148.851 4.24996 148.765 4.30667 148.674 4.28665L147.907 4.11321C147.821 4.09319 147.764 4.00647 147.784 3.91641L147.954 3.16258C147.974 3.07586 148.061 3.01915 148.151 3.03917Z" fill="#585857"/>
<path d="M147.934 3.98976C147.914 3.98643 147.901 3.96308 147.904 3.94307L148.074 3.18924C148.077 3.16922 148.101 3.15588 148.121 3.15922L148.888 3.33266C148.908 3.336 148.921 3.35935 148.918 3.37936L148.748 4.13319C148.745 4.1532 148.721 4.16655 148.701 4.16321L147.934 3.98976Z" fill="#5E5E5D"/>
<path d="M149.461 3.33247L150.229 3.50592C150.315 3.52593 150.372 3.61266 150.352 3.70271L150.182 4.45654C150.162 4.54327 150.075 4.59997 149.985 4.57996L149.218 4.40651C149.131 4.3865 149.074 4.29977 149.095 4.20971L149.265 3.45589C149.285 3.36916 149.371 3.31246 149.461 3.33247Z" fill="#585857"/>
<path d="M149.248 4.28641C149.228 4.28307 149.215 4.25972 149.218 4.23971L149.388 3.48588C149.392 3.46587 149.415 3.45253 149.435 3.45586L150.202 3.62931C150.222 3.63265 150.235 3.656 150.232 3.67601L150.062 4.42984C150.059 4.44985 150.035 4.46319 150.015 4.45986L149.248 4.28641Z" fill="#5E5E5D"/>
<path d="M150.772 3.62951L151.54 3.80296C151.626 3.82297 151.683 3.9097 151.663 3.99976L151.493 4.75358C151.473 4.84031 151.386 4.89701 151.296 4.877L150.529 4.70355C150.442 4.68354 150.386 4.59681 150.406 4.50676L150.576 3.75293C150.596 3.66287 150.682 3.6095 150.772 3.62951Z" fill="#585857"/>
<path d="M150.559 4.58017C150.539 4.57684 150.525 4.55349 150.529 4.53347L150.699 3.77965C150.702 3.75963 150.726 3.74629 150.746 3.74963L151.513 3.92307C151.533 3.92641 151.546 3.94976 151.543 3.96977L151.373 4.7236C151.369 4.74361 151.346 4.75695 151.326 4.75362L150.559 4.58017Z" fill="#5E5E5D"/>
<path d="M152.083 3.92286L152.85 4.09631C152.937 4.11633 152.994 4.20305 152.974 4.29311L152.804 5.04694C152.784 5.13366 152.697 5.19036 152.607 5.17035L151.843 4.9969C151.756 4.97689 151.7 4.89017 151.72 4.80011L151.89 4.04628C151.907 3.95955 151.993 3.90285 152.083 3.92286Z" fill="#585857"/>
<path d="M151.87 4.87369C151.85 4.87035 151.836 4.847 151.84 4.82699L152.01 4.07316C152.013 4.05315 152.037 4.03981 152.057 4.04314L152.824 4.21659C152.844 4.21993 152.857 4.24328 152.854 4.26329L152.68 5.01712C152.677 5.03713 152.654 5.05047 152.634 5.04714L151.87 4.87369Z" fill="#5E5E5D"/>
<path d="M153.394 4.21991L154.161 4.39335C154.248 4.41337 154.305 4.50009 154.285 4.59015L154.115 5.34398C154.095 5.4307 154.008 5.4874 153.918 5.46739L153.151 5.29394C153.064 5.27393 153.007 5.18721 153.027 5.09715L153.197 4.34332C153.217 4.25326 153.307 4.19989 153.394 4.21991Z" fill="#585857"/>
<path d="M153.181 5.17056C153.161 5.16723 153.148 5.14388 153.151 5.12387L153.321 4.37004C153.324 4.35003 153.348 4.33668 153.368 4.34002L154.135 4.51347C154.155 4.5168 154.168 4.54015 154.165 4.56016L153.995 5.31399C153.991 5.334 153.968 5.34735 153.948 5.34401L153.181 5.17056Z" fill="#5E5E5D"/>
<path d="M154.705 4.51327L155.472 4.68672C155.559 4.70673 155.615 4.79346 155.595 4.88351L155.425 5.63734C155.405 5.72407 155.318 5.78077 155.228 5.76076L154.461 5.58731C154.375 5.5673 154.318 5.48057 154.338 5.39051L154.511 4.63669C154.528 4.54996 154.618 4.49326 154.705 4.51327Z" fill="#585857"/>
<path d="M154.491 5.46408C154.471 5.46075 154.458 5.4374 154.461 5.41739L154.632 4.66356C154.635 4.64354 154.658 4.6302 154.678 4.63354L155.445 4.80698C155.465 4.81032 155.479 4.83367 155.475 4.85368L155.305 5.60751C155.302 5.62752 155.279 5.64087 155.259 5.63753L154.491 5.46408Z" fill="#5E5E5D"/>
<path d="M138.694 2.19517L139.461 2.36862C139.548 2.38863 139.605 2.47536 139.585 2.56542L139.415 3.31924C139.395 3.40597 139.308 3.46267 139.218 3.44266L138.451 3.26921C138.364 3.2492 138.307 3.16247 138.327 3.07241L138.501 2.31859C138.521 2.23186 138.607 2.17516 138.694 2.19517Z" fill="#585857"/>
<path d="M138.481 3.14577C138.461 3.14243 138.448 3.11908 138.451 3.09907L138.621 2.34524C138.624 2.32523 138.648 2.31189 138.668 2.31522L139.435 2.48867C139.455 2.49201 139.468 2.51535 139.465 2.53537L139.295 3.2892C139.291 3.30921 139.268 3.32255 139.248 3.31922L138.481 3.14577Z" fill="#5E5E5D"/>
<path d="M140.009 2.49198L140.776 2.66543C140.863 2.68545 140.919 2.77217 140.899 2.86223L140.729 3.61606C140.709 3.70278 140.623 3.75948 140.533 3.73947L139.765 3.56602C139.679 3.54601 139.622 3.45929 139.642 3.36923L139.812 2.6154C139.832 2.52534 139.919 2.47197 140.009 2.49198Z" fill="#585857"/>
<path d="M139.792 3.44264C139.772 3.43931 139.759 3.41596 139.762 3.39595L139.932 2.64212C139.935 2.6221 139.959 2.60876 139.979 2.6121L140.746 2.78555C140.766 2.78888 140.779 2.81223 140.776 2.83224L140.606 3.58607C140.603 3.60608 140.579 3.61943 140.559 3.61609L139.792 3.44264Z" fill="#5E5E5D"/>
<path d="M141.319 2.78557L142.087 2.95901C142.173 2.97903 142.23 3.06575 142.21 3.15581L142.04 3.90964C142.02 3.99636 141.933 4.05306 141.843 4.03305L141.076 3.8596C140.989 3.83959 140.933 3.75287 140.953 3.66281L141.123 2.90898C141.143 2.82226 141.229 2.76555 141.319 2.78557Z" fill="#585857"/>
<path d="M141.106 3.73616C141.086 3.73283 141.073 3.70948 141.076 3.68947L141.246 2.93564C141.25 2.91562 141.273 2.90228 141.293 2.90562L142.06 3.07906C142.08 3.0824 142.093 3.10575 142.09 3.12576L141.92 3.87959C141.917 3.8996 141.893 3.91295 141.873 3.90961L141.106 3.73616Z" fill="#5E5E5D"/>
<path d="M142.63 3.0791L143.397 3.25255C143.484 3.27256 143.541 3.35928 143.521 3.44934L143.351 4.20317C143.33 4.2899 143.244 4.3466 143.154 4.32659L142.387 4.15314C142.3 4.13313 142.243 4.0464 142.263 3.95634L142.433 3.20251C142.453 3.11579 142.54 3.05909 142.63 3.0791Z" fill="#585857"/>
<path d="M142.417 4.0297C142.397 4.02636 142.383 4.00301 142.387 3.983L142.557 3.22917C142.56 3.20916 142.584 3.19581 142.604 3.19915L143.371 3.3726C143.391 3.37593 143.404 3.39928 143.401 3.41929L143.231 4.17312C143.227 4.19314 143.204 4.20648 143.184 4.20314L142.417 4.0297Z" fill="#5E5E5D"/>
<path d="M143.942 3.37591L144.709 3.54936C144.795 3.56937 144.852 3.65609 144.832 3.74615L144.662 4.49998C144.642 4.58671 144.555 4.64341 144.465 4.6234L143.698 4.44995C143.611 4.42994 143.555 4.34321 143.575 4.25315L143.745 3.49933C143.765 3.40927 143.855 3.3559 143.942 3.37591Z" fill="#585857"/>
<path d="M143.728 4.32657C143.708 4.32324 143.694 4.29989 143.698 4.27987L143.868 3.52604C143.871 3.50603 143.895 3.49269 143.915 3.49602L144.682 3.66947C144.702 3.67281 144.715 3.69616 144.712 3.71617L144.542 4.47C144.538 4.49001 144.515 4.50335 144.495 4.50002L143.728 4.32657Z" fill="#5E5E5D"/>
<path d="M145.252 3.66926L146.019 3.84271C146.106 3.86272 146.163 3.94945 146.143 4.03951L145.973 4.79334C145.953 4.88006 145.866 4.93676 145.776 4.91675L145.009 4.7433C144.922 4.72329 144.865 4.63657 144.885 4.54651L145.055 3.79268C145.075 3.70596 145.165 3.64925 145.252 3.66926Z" fill="#585857"/>
<path d="M145.039 4.62009C145.019 4.61675 145.006 4.5934 145.009 4.57339L145.179 3.81956C145.182 3.79955 145.206 3.78621 145.226 3.78954L145.993 3.96299C146.013 3.96633 146.026 3.98967 146.023 4.00969L145.853 4.76352C145.849 4.78353 145.826 4.79687 145.806 4.79354L145.039 4.62009Z" fill="#5E5E5D"/>
<path d="M146.563 3.9663L147.33 4.13975C147.417 4.15976 147.473 4.24649 147.453 4.33655L147.283 5.09038C147.263 5.1771 147.176 5.2338 147.086 5.21379L146.319 5.04034C146.233 5.02033 146.176 4.93361 146.196 4.84355L146.366 4.08972C146.389 3.99966 146.476 3.94629 146.563 3.9663Z" fill="#585857"/>
<path d="M146.349 4.91696C146.329 4.91363 146.316 4.89028 146.319 4.87027L146.49 4.11644C146.493 4.09642 146.516 4.08308 146.536 4.08642L147.303 4.25987C147.323 4.2632 147.337 4.28655 147.333 4.30656L147.163 5.06039C147.16 5.0804 147.137 5.09375 147.117 5.09041L146.349 4.91696Z" fill="#5E5E5D"/>
<path d="M147.874 4.25967L148.641 4.43312C148.728 4.45313 148.784 4.53986 148.764 4.62992L148.594 5.38374C148.574 5.47047 148.488 5.52717 148.397 5.50716L147.63 5.33371C147.544 5.3137 147.487 5.22697 147.507 5.13692L147.677 4.38309C147.7 4.29636 147.787 4.23966 147.874 4.25967Z" fill="#585857"/>
<path d="M147.66 5.21048C147.64 5.20715 147.627 5.1838 147.63 5.16378L147.8 4.40996C147.804 4.38994 147.827 4.3766 147.847 4.37994L148.614 4.55338C148.634 4.55672 148.647 4.58007 148.644 4.60008L148.474 5.35391C148.471 5.37392 148.447 5.38726 148.427 5.38393L147.66 5.21048Z" fill="#5E5E5D"/>
<path d="M149.185 4.55342L149.952 4.72687C150.039 4.74688 150.095 4.8336 150.075 4.92366L149.905 5.67749C149.885 5.76421 149.799 5.82092 149.709 5.8009L148.941 5.62746C148.855 5.60744 148.798 5.52072 148.818 5.43066L148.988 4.67683C149.011 4.59011 149.098 4.53341 149.185 4.55342Z" fill="#585857"/>
<path d="M148.971 5.50401C148.951 5.50068 148.938 5.47733 148.941 5.45732L149.111 4.70349C149.115 4.68348 149.138 4.67013 149.158 4.67347L149.925 4.84692C149.945 4.85025 149.958 4.8736 149.955 4.89361L149.785 5.64744C149.782 5.66745 149.758 5.6808 149.738 5.67746L148.971 5.50401Z" fill="#5E5E5D"/>
<path d="M150.495 4.85023L151.263 5.02368C151.349 5.04369 151.406 5.13041 151.386 5.22047L151.216 5.9743C151.196 6.06103 151.109 6.11773 151.019 6.09772L150.252 5.92427C150.165 5.90426 150.109 5.81753 150.129 5.72747L150.299 4.97364C150.322 4.88359 150.409 4.83022 150.495 4.85023Z" fill="#585857"/>
<path d="M150.282 5.80087C150.262 5.79754 150.249 5.77419 150.252 5.75418L150.422 5.00035C150.426 4.98034 150.449 4.96699 150.469 4.97033L151.236 5.14378C151.256 5.14711 151.269 5.17046 151.266 5.19047L151.096 5.9443C151.093 5.96431 151.069 5.97766 151.049 5.97432L150.282 5.80087Z" fill="#5E5E5D"/>
<path d="M151.81 5.14381L152.577 5.31726C152.664 5.33727 152.72 5.424 152.7 5.51406L152.53 6.26788C152.51 6.35461 152.423 6.41131 152.333 6.3913L151.566 6.21785C151.479 6.19784 151.423 6.11111 151.443 6.02105L151.613 5.26723C151.633 5.1805 151.72 5.1238 151.81 5.14381Z" fill="#585857"/>
<path d="M151.593 6.09441C151.573 6.09107 151.559 6.06772 151.563 6.04771L151.733 5.29388C151.736 5.27387 151.76 5.26053 151.78 5.26386L152.547 5.43731C152.567 5.44064 152.58 5.46399 152.577 5.48401L152.407 6.23783C152.403 6.25785 152.38 6.27119 152.36 6.26785L151.593 6.09441Z" fill="#5E5E5D"/>
<path d="M153.121 5.44062L153.888 5.61407C153.975 5.63408 154.031 5.72081 154.011 5.81087L153.841 6.5647C153.821 6.65142 153.734 6.70812 153.644 6.68811L152.877 6.51466C152.79 6.49465 152.734 6.40793 152.754 6.31787L152.924 5.56404C152.944 5.47398 153.031 5.42061 153.121 5.44062Z" fill="#585857"/>
<path d="M152.907 6.39128C152.887 6.38795 152.874 6.3646 152.877 6.34459L153.047 5.59076C153.051 5.57074 153.074 5.5574 153.094 5.56074L153.861 5.73418C153.881 5.73752 153.895 5.76087 153.891 5.78088L153.721 6.53471C153.718 6.55472 153.695 6.56807 153.675 6.56473L152.907 6.39128Z" fill="#5E5E5D"/>
<path d="M154.432 5.7342L155.199 5.90765C155.286 5.92766 155.342 6.01439 155.322 6.10445L155.152 6.85828C155.132 6.945 155.045 7.0017 154.955 6.98169L154.188 6.80824C154.102 6.78823 154.045 6.70151 154.065 6.61145L154.235 5.85762C154.255 5.7709 154.342 5.71419 154.432 5.7342Z" fill="#585857"/>
<path d="M154.218 6.6848C154.198 6.68147 154.185 6.65812 154.188 6.6381L154.358 5.88428C154.361 5.86426 154.385 5.85092 154.405 5.85426L155.172 6.0277C155.192 6.03104 155.205 6.05439 155.202 6.0744L155.032 6.82823C155.029 6.84824 155.005 6.86158 154.985 6.85825L154.218 6.6848Z" fill="#5E5E5D"/>
<path d="M138.421 3.41589L139.188 3.58934C139.275 3.60935 139.332 3.69608 139.312 3.78613L139.142 4.53996C139.122 4.62669 139.035 4.68339 138.945 4.66338L138.178 4.48993C138.091 4.46992 138.034 4.38319 138.054 4.29313L138.224 3.53931C138.248 3.45258 138.335 3.39588 138.421 3.41589Z" fill="#585857"/>
<path d="M138.208 4.36649C138.187 4.36315 138.174 4.3398 138.177 4.31979L138.348 3.56596C138.351 3.54595 138.374 3.53261 138.394 3.53594L139.161 3.70939C139.181 3.71272 139.195 3.73607 139.191 3.75609L139.021 4.50991C139.018 4.52993 138.995 4.54327 138.975 4.53993L138.208 4.36649Z" fill="#5E5E5D"/>
<path d="M139.732 3.70933L140.499 3.88277C140.586 3.90279 140.642 3.98951 140.622 4.07957L140.452 4.8334C140.432 4.92012 140.346 4.97683 140.255 4.95681L139.488 4.78336C139.402 4.76335 139.345 4.67663 139.365 4.58657L139.535 3.83274C139.558 3.74602 139.645 3.69265 139.732 3.70933Z" fill="#585857"/>
<path d="M139.519 4.66358C139.499 4.66024 139.485 4.63689 139.489 4.61688L139.659 3.86305C139.662 3.84304 139.685 3.82969 139.705 3.83303L140.472 4.00648C140.493 4.00981 140.506 4.03316 140.503 4.05317L140.332 4.807C140.329 4.82702 140.306 4.84036 140.286 4.83702L139.519 4.66358Z" fill="#5E5E5D"/>
<path d="M141.042 4.00628L141.81 4.17973C141.896 4.19974 141.953 4.28647 141.933 4.37653L141.763 5.13036C141.743 5.21708 141.656 5.27378 141.566 5.25377L140.799 5.08032C140.712 5.06031 140.655 4.97359 140.676 4.88353L140.846 4.1297C140.869 4.04297 140.956 3.98627 141.042 4.00628Z" fill="#585857"/>
<path d="M140.829 4.95688C140.809 4.95354 140.796 4.9302 140.799 4.91018L140.969 4.15635C140.973 4.13634 140.996 4.123 141.016 4.12633L141.783 4.29978C141.803 4.30312 141.816 4.32647 141.813 4.34648L141.643 5.10031C141.64 5.12032 141.616 5.13366 141.596 5.13033L140.829 4.95688Z" fill="#5E5E5D"/>
<path d="M142.357 4.29982L143.124 4.47326C143.211 4.49328 143.268 4.58 143.248 4.67006L143.078 5.42389C143.058 5.51061 142.971 5.56732 142.881 5.5473L142.114 5.37386C142.027 5.35384 141.97 5.26712 141.99 5.17706L142.16 4.42323C142.18 4.33651 142.267 4.2798 142.357 4.29982Z" fill="#585857"/>
<path d="M142.14 5.25041C142.12 5.24708 142.107 5.22373 142.11 5.20372L142.28 4.44989C142.284 4.42987 142.307 4.41653 142.327 4.41987L143.094 4.59332C143.114 4.59665 143.128 4.62 143.124 4.64001L142.954 5.39384C142.951 5.41386 142.927 5.4272 142.907 5.42386L142.14 5.25041Z" fill="#5E5E5D"/>
<path d="M143.668 4.59684L144.435 4.77029C144.522 4.7903 144.578 4.87703 144.558 4.96709L144.388 5.72091C144.368 5.80764 144.281 5.86434 144.191 5.84433L143.424 5.67088C143.337 5.65087 143.281 5.56414 143.301 5.47409L143.471 4.72026C143.491 4.6302 143.578 4.57683 143.668 4.59684Z" fill="#585857"/>
<path d="M143.454 5.54727C143.434 5.54394 143.421 5.52059 143.424 5.50058L143.594 4.74675C143.598 4.72673 143.621 4.71339 143.641 4.71673L144.408 4.89018C144.428 4.89351 144.442 4.91686 144.438 4.93687L144.268 5.6907C144.265 5.71071 144.242 5.72406 144.222 5.72072L143.454 5.54727Z" fill="#5E5E5D"/>
<path d="M144.979 4.89021L145.746 5.06366C145.833 5.08367 145.889 5.17039 145.869 5.26045L145.699 6.01428C145.679 6.10101 145.592 6.15771 145.502 6.1377L144.735 5.96425C144.648 5.94424 144.592 5.85751 144.612 5.76745L144.782 5.01363C144.802 4.9269 144.889 4.8702 144.979 4.89021Z" fill="#585857"/>
<path d="M144.765 5.84081C144.745 5.83747 144.732 5.81412 144.735 5.79411L144.905 5.04028C144.908 5.02027 144.932 5.00693 144.952 5.01026L145.719 5.18371C145.739 5.18704 145.752 5.21039 145.749 5.23041L145.579 5.98424C145.575 6.00425 145.552 6.01759 145.532 6.01425L144.765 5.84081Z" fill="#5E5E5D"/>
<path d="M146.29 5.18365L147.057 5.35709C147.144 5.37711 147.2 5.46383 147.18 5.55389L147.01 6.30772C146.99 6.39444 146.903 6.45115 146.813 6.43113L146.046 6.25769C145.96 6.23767 145.903 6.15095 145.923 6.06089L146.093 5.30706C146.113 5.22034 146.2 5.16697 146.29 5.18365Z" fill="#585857"/>
<path d="M146.076 6.13768C146.056 6.13435 146.043 6.111 146.046 6.09099L146.216 5.33716C146.219 5.31714 146.243 5.3038 146.263 5.30714L147.03 5.48058C147.05 5.48392 147.063 5.50727 147.06 5.52728L146.89 6.28111C146.887 6.30112 146.863 6.31447 146.843 6.31113L146.076 6.13768Z" fill="#5E5E5D"/>
<path d="M147.6 5.48054L148.368 5.65399C148.454 5.674 148.511 5.76072 148.491 5.85078L148.321 6.60461C148.301 6.69134 148.214 6.74804 148.124 6.72803L147.357 6.55458C147.27 6.53457 147.213 6.44784 147.233 6.35778L147.404 5.60395C147.424 5.5139 147.514 5.46053 147.6 5.48054Z" fill="#585857"/>
<path d="M147.387 6.4312C147.367 6.42786 147.354 6.40452 147.357 6.3845L147.527 5.63067C147.53 5.61066 147.554 5.59732 147.574 5.60065L148.341 5.7741C148.361 5.77744 148.374 5.80079 148.371 5.8208L148.201 6.57463C148.198 6.59464 148.174 6.60798 148.154 6.60465L147.387 6.4312Z" fill="#5E5E5D"/>
<path d="M148.911 5.77414L149.678 5.94758C149.765 5.9676 149.822 6.05432 149.802 6.14438L149.631 6.89821C149.611 6.98493 149.525 7.04164 149.435 7.02162L148.667 6.84818C148.581 6.82816 148.524 6.74144 148.544 6.65138L148.714 5.89755C148.734 5.81083 148.824 5.75412 148.911 5.77414Z" fill="#585857"/>
<path d="M148.698 6.72473C148.678 6.7214 148.664 6.69805 148.668 6.67804L148.838 5.92421C148.841 5.90419 148.864 5.89085 148.884 5.89419L149.652 6.06764C149.672 6.07097 149.685 6.09432 149.682 6.11433L149.508 6.86816C149.505 6.88817 149.482 6.90152 149.462 6.89818L148.698 6.72473Z" fill="#5E5E5D"/>
<path d="M150.222 6.07095L150.989 6.2444C151.076 6.26441 151.133 6.35113 151.113 6.44119L150.942 7.19502C150.922 7.28174 150.836 7.33845 150.746 7.31844L149.979 7.14499C149.892 7.12498 149.835 7.03825 149.855 6.94819L150.025 6.19436C150.049 6.1043 150.135 6.05094 150.222 6.07095Z" fill="#585857"/>
<path d="M150.008 7.02159C149.988 7.01826 149.975 6.99824 149.978 6.9749L150.148 6.22107C150.152 6.20105 150.175 6.18771 150.195 6.19105L150.962 6.36449C150.982 6.36783 150.996 6.39118 150.992 6.41119L150.822 7.16502C150.819 7.18503 150.795 7.19838 150.775 7.19504L150.008 7.02159Z" fill="#5E5E5D"/>
<path d="M151.533 6.36453L152.3 6.53798C152.387 6.55799 152.444 6.64471 152.424 6.73477L152.254 7.4886C152.234 7.57533 152.147 7.63203 152.057 7.61202L151.29 7.43857C151.203 7.41856 151.146 7.33183 151.166 7.24177L151.336 6.48794C151.36 6.40122 151.446 6.34452 151.533 6.36453Z" fill="#585857"/>
<path d="M151.319 7.31513C151.299 7.31179 151.286 7.28844 151.289 7.26843L151.459 6.5146C151.463 6.49459 151.486 6.48125 151.506 6.48458L152.273 6.65803C152.293 6.66136 152.307 6.68471 152.303 6.70473L152.133 7.45855C152.13 7.47857 152.107 7.49191 152.086 7.48857L151.319 7.31513Z" fill="#5E5E5D"/>
<path d="M152.844 6.65805L153.611 6.8315C153.698 6.85151 153.754 6.93823 153.734 7.02829L153.564 7.78212C153.544 7.86884 153.457 7.92555 153.367 7.90553L152.6 7.73209C152.513 7.71207 152.457 7.62535 152.477 7.53529L152.647 6.78146C152.67 6.69474 152.757 6.63803 152.844 6.65805Z" fill="#585857"/>
<path d="M152.63 7.612C152.61 7.60867 152.597 7.58532 152.6 7.5653L152.77 6.81148C152.774 6.79146 152.797 6.77812 152.817 6.78146L153.584 6.9549C153.604 6.95824 153.618 6.98159 153.614 7.0016L153.444 7.75209C153.441 7.77211 153.418 7.78545 153.398 7.78211L152.63 7.612Z" fill="#5E5E5D"/>
<path d="M154.158 6.95486L154.925 7.12831C155.012 7.14832 155.068 7.23504 155.048 7.3251L154.878 8.07893C154.858 8.16566 154.772 8.22236 154.682 8.20235L153.914 8.0289C153.828 8.00889 153.771 7.92216 153.791 7.8321L153.961 7.07827C153.981 6.98821 154.068 6.93485 154.158 6.95486Z" fill="#585857"/>
<path d="M153.941 7.90552C153.921 7.90218 153.908 7.87884 153.911 7.85882L154.081 7.10499C154.084 7.08498 154.108 7.07164 154.128 7.07497L154.895 7.24842C154.915 7.25176 154.928 7.27511 154.925 7.29512L154.755 8.04895C154.752 8.06896 154.728 8.0823 154.708 8.07897L153.941 7.90552Z" fill="#5E5E5D"/>
<path d="M138.147 4.63684L138.914 4.81029C139.001 4.8303 139.058 4.91702 139.038 5.00708L138.868 5.76091C138.848 5.84763 138.761 5.90434 138.671 5.88432L137.904 5.71088C137.817 5.69086 137.76 5.60414 137.78 5.51408L137.951 4.76025C137.971 4.67353 138.061 4.61683 138.147 4.63684Z" fill="#585857"/>
<path d="M137.934 5.58743C137.914 5.5841 137.901 5.56075 137.904 5.54074L138.074 4.78691C138.077 4.7669 138.101 4.75355 138.121 4.75689L138.888 4.93034C138.908 4.93367 138.921 4.95702 138.918 4.97703L138.748 5.73086C138.745 5.75087 138.721 5.76422 138.701 5.76088L137.934 5.58743Z" fill="#5E5E5D"/>
<path d="M139.458 4.93036L140.226 5.1038C140.312 5.12382 140.369 5.21054 140.349 5.3006L140.179 6.05443C140.159 6.14115 140.072 6.19786 139.982 6.17784L139.215 6.00439C139.128 5.98438 139.071 5.89766 139.091 5.8076L139.262 5.05377C139.282 4.96705 139.372 4.91034 139.458 4.93036Z" fill="#585857"/>
<path d="M139.245 5.88095C139.225 5.87762 139.212 5.85427 139.215 5.83426L139.385 5.08043C139.389 5.06041 139.412 5.04707 139.432 5.05041L140.199 5.22385C140.219 5.22719 140.232 5.25054 140.229 5.27055L140.059 6.02438C140.056 6.04439 140.032 6.05774 140.012 6.0544L139.245 5.88095Z" fill="#5E5E5D"/>
<path d="M140.769 5.22717L141.537 5.40062C141.623 5.42063 141.68 5.50735 141.66 5.59741L141.49 6.35124C141.47 6.43796 141.383 6.49467 141.293 6.47465L140.526 6.30121C140.439 6.28119 140.382 6.19447 140.402 6.10441L140.576 5.35058C140.596 5.26052 140.683 5.20716 140.769 5.22717Z" fill="#585857"/>
<path d="M140.556 6.1776C140.536 6.17426 140.522 6.15091 140.526 6.1309L140.696 5.37707C140.699 5.35706 140.722 5.34372 140.742 5.34705L141.51 5.5205C141.53 5.52383 141.543 5.54718 141.54 5.5672L141.37 6.32103C141.366 6.34104 141.343 6.35438 141.323 6.35105L140.556 6.1776Z" fill="#5E5E5D"/>
<path d="M142.08 5.52075L142.847 5.6942C142.934 5.71421 142.991 5.80093 142.971 5.89099L142.8 6.64482C142.78 6.73155 142.694 6.78825 142.604 6.76824L141.837 6.59479C141.75 6.57478 141.693 6.48805 141.713 6.39799L141.883 5.64416C141.907 5.55744 141.993 5.50074 142.08 5.52075Z" fill="#585857"/>
<path d="M141.867 6.47135C141.847 6.46801 141.833 6.44466 141.837 6.42465L142.007 5.67082C142.01 5.65081 142.034 5.63746 142.054 5.6408L142.821 5.81425C142.841 5.81758 142.854 5.84093 142.851 5.86094L142.681 6.61477C142.677 6.63479 142.654 6.64813 142.634 6.64479L141.867 6.47135Z" fill="#5E5E5D"/>
<path d="M148.09 6.87159L143.384 5.81423C143.297 5.79422 143.214 5.84758 143.194 5.93431L143.01 6.74484C142.997 6.80488 143.034 6.86492 143.094 6.87826L147.844 7.94563C147.93 7.96564 148.02 7.90894 148.04 7.82222L148.21 7.06839C148.234 6.98166 148.18 6.8916 148.09 6.87159Z" fill="#585857"/>
<path d="M143.141 6.75812L143.321 5.96093C143.324 5.94425 143.344 5.9309 143.361 5.93758L148.067 6.99494C148.087 6.99827 148.1 7.02162 148.097 7.04164L147.927 7.79546C147.924 7.81548 147.9 7.82882 147.88 7.82548L143.141 6.75812Z" fill="#5E5E5D"/>
<path d="M148.638 6.99507L149.405 7.16852C149.492 7.18853 149.549 7.27525 149.529 7.36531L149.358 8.11914C149.338 8.20586 149.252 8.26257 149.162 8.24255L148.394 8.06911C148.308 8.0491 148.251 7.96237 148.271 7.87231L148.441 7.11848C148.461 7.03176 148.548 6.97506 148.638 6.99507Z" fill="#585857"/>
<path d="M148.424 7.94566C148.404 7.94233 148.391 7.91898 148.394 7.89897L148.564 7.14514C148.568 7.12513 148.591 7.11178 148.611 7.11512L149.378 7.28857C149.398 7.2919 149.412 7.31525 149.408 7.33526L149.238 8.08909C149.235 8.10911 149.211 8.12245 149.191 8.11911L148.424 7.94566Z" fill="#5E5E5D"/>
<path d="M149.949 7.29188L150.716 7.46533C150.802 7.48534 150.859 7.57207 150.839 7.66212L150.669 8.41595C150.649 8.50268 150.562 8.55938 150.472 8.53937L149.705 8.36592C149.618 8.34591 149.562 8.25918 149.582 8.16912L149.752 7.4153C149.772 7.32524 149.862 7.27187 149.949 7.29188Z" fill="#585857"/>
<path d="M149.735 8.24254C149.715 8.2392 149.702 8.21586 149.705 8.19584L149.875 7.44201C149.879 7.422 149.902 7.40866 149.922 7.41199L150.689 7.58544C150.709 7.58878 150.723 7.61213 150.719 7.63214L150.549 8.38597C150.546 8.40598 150.522 8.41932 150.502 8.41599L149.735 8.24254Z" fill="#5E5E5D"/>
<path d="M151.259 7.58546L152.026 7.75891C152.113 7.77892 152.17 7.86565 152.15 7.95571L151.98 8.70953C151.96 8.79626 151.873 8.85296 151.783 8.83295L151.016 8.6595C150.929 8.63949 150.872 8.55276 150.892 8.46271L151.062 7.70888C151.082 7.62215 151.172 7.56545 151.259 7.58546Z" fill="#585857"/>
<path d="M151.046 8.53606C151.026 8.53272 151.013 8.50937 151.016 8.48936L151.186 7.73553C151.189 7.71552 151.213 7.70218 151.233 7.70551L152 7.87896C152.02 7.8823 152.033 7.90564 152.03 7.92566L151.86 8.67949C151.856 8.6995 151.836 8.71284 151.813 8.70951L151.046 8.53606Z" fill="#5E5E5D"/>
<path d="M152.57 7.87877L153.337 8.05221C153.424 8.07223 153.481 8.15895 153.461 8.24901L153.291 9.00284C153.271 9.08956 153.184 9.14627 153.094 9.12625L152.327 8.95281C152.24 8.93279 152.183 8.84607 152.203 8.75601L152.373 8.00218C152.397 7.91546 152.483 7.85875 152.57 7.87877Z" fill="#585857"/>
<path d="M152.356 8.82959C152.336 8.82626 152.323 8.80291 152.326 8.7829L152.497 8.02907C152.5 8.00905 152.523 7.99571 152.543 7.99905L153.31 8.17249C153.33 8.17583 153.344 8.19918 153.34 8.21919L153.17 8.97302C153.167 8.99303 153.144 9.00637 153.124 9.00304L152.356 8.82959Z" fill="#5E5E5D"/>
<path d="M153.881 8.17581L154.648 8.34925C154.735 8.36927 154.792 8.45599 154.772 8.54605L154.602 9.29988C154.582 9.3866 154.495 9.44331 154.405 9.42329L153.638 9.24985C153.551 9.22983 153.494 9.14311 153.514 9.05305L153.684 8.29922C153.708 8.20916 153.795 8.15579 153.881 8.17581Z" fill="#585857"/>
<path d="M153.668 9.12647C153.648 9.12313 153.635 9.09978 153.638 9.07977L153.808 8.32594C153.811 8.30593 153.835 8.29259 153.855 8.29592L154.622 8.46937C154.642 8.4727 154.655 8.49605 154.652 8.51607L154.482 9.26989C154.479 9.28991 154.455 9.30325 154.435 9.29991L153.668 9.12647Z" fill="#5E5E5D"/>
<path d="M147.854 8.99958L144.004 8.13568C143.831 8.09565 143.658 8.20573 143.621 8.37917L143.157 10.4372C143.117 10.6106 143.227 10.7841 143.401 10.8208L147.25 11.6847C147.423 11.7247 147.597 11.6146 147.634 11.4412L148.097 9.38317C148.137 9.20972 148.027 9.03961 147.854 8.99958Z" fill="#EDEDED"/>
<path d="M147.884 8.87611L144.034 8.0122C143.794 7.95884 143.554 8.10893 143.501 8.34909L143.037 10.4071C142.984 10.6473 143.134 10.8874 143.374 10.9408L147.223 11.8047C147.463 11.8581 147.704 11.708 147.757 11.4678L148.221 9.40979C148.274 9.16963 148.124 8.93281 147.884 8.87611ZM147.637 11.4411C147.597 11.6146 147.427 11.7246 147.253 11.6846L143.404 10.8207C143.231 10.7807 143.121 10.6106 143.161 10.4371L143.624 8.37911C143.664 8.20567 143.834 8.09559 144.008 8.13562L147.857 8.99952C148.03 9.03955 148.14 9.20966 148.1 9.3831L147.637 11.4411Z" fill="#9D9B9B"/>
<path d="M143.388 9.42311L143.161 10.4371C143.121 10.6106 143.231 10.784 143.404 10.8207L147.254 11.6846C147.427 11.7246 147.6 11.6146 147.637 11.4411L147.864 10.4271L143.388 9.42311Z" fill="#DFDFDE"/>
<path d="M145.609 9.92031L143.388 9.41998L143.161 10.434C143.121 10.6074 143.231 10.7809 143.404 10.8176L145.312 11.2479L145.609 9.92031Z" fill="#D9D9DA"/>
<path d="M157.09 3.0924L138.191 -1.15705C138.081 -1.18374 138.004 -1.28714 138.014 -1.40055L139.992 -12.2143C140.019 -12.5112 140.299 -12.7146 140.589 -12.6479L159.838 -8.31843C160.129 -8.25171 160.295 -7.94818 160.192 -7.668L157.353 2.94898C157.313 3.05571 157.203 3.11909 157.09 3.0924Z" fill="#E3E1E1"/>
<path d="M138.838 -2.1945L140.663 -11.3238C140.689 -11.604 140.953 -11.7975 141.226 -11.7341L158.868 -7.76816C159.141 -7.70812 159.298 -7.41793 159.201 -7.15442L156.947 1.87484C156.867 2.09499 156.636 2.2184 156.406 2.16837L139.202 -1.70084C138.971 -1.75087 138.818 -1.96435 138.838 -2.1945Z" fill="#C7C7C6"/>
<path d="M138.965 -2.18117L140.789 -11.3172C140.809 -11.5206 140.999 -11.6607 141.199 -11.614L158.848 -7.64476C159.044 -7.6014 159.161 -7.39126 159.091 -7.20113L156.83 1.8348C156.773 1.99491 156.606 2.08497 156.439 2.04827L139.225 -1.82427C139.061 -1.86096 138.948 -2.01439 138.965 -2.18117Z" fill="#C6E6F2"/>
<path d="M154.351 2.47859L140.903 -0.546729L140.909 -0.773544L154.468 2.27513L154.351 2.47859Z" fill="#585857"/>
</g>
<path d="M30.3077 64.9767C29.4108 61.1851 25.6193 58.8467 21.8483 59.7473C18.0721 60.6479 15.7432 64.4548 16.6401 68.2412C17.272 70.9019 19.3308 72.8463 21.8075 73.4552C21.9502 73.8338 22.2152 76.1313 22.6891 76.8681C22.9031 77.2007 23.1732 77.257 23.586 77.17C23.9173 78.352 25.3034 79.4367 26.4449 79.3293C27.245 79.2525 27.8259 78.6999 28.0858 77.958C28.2896 77.3798 28.4527 76.7146 28.5546 76.0699C29.105 76.0545 29.37 75.9982 29.3445 75.4815C29.2987 74.586 28.3304 72.1197 28.2947 71.7411C30.0529 70.0679 30.909 67.5197 30.3077 64.9767Z" fill="#FDFFFC"/>
<path d="M26.6538 64.721C26.5468 64.3372 26.1697 64.0814 25.7722 64.1786C25.4002 64.2656 25.1199 64.68 25.232 65.0638C25.2983 65.2992 25.4715 65.4885 25.6805 65.5755C25.5276 66.5681 25.3339 67.5454 25.2524 68.5483C25.176 69.4796 25.0995 70.3904 24.8957 71.296C23.7898 69.6331 22.6891 67.9752 21.4712 66.3941C21.8075 66.0718 21.5527 65.3503 20.987 65.4834C20.3195 65.642 20.5641 66.6858 21.2367 66.5272C21.2418 66.5272 21.2469 66.5221 21.252 66.517C22.5158 68.3129 23.7542 70.1345 24.7836 72.0789C24.8957 72.2887 25.2014 72.2426 25.2728 72.0277C25.6091 71.0249 25.7059 70.0015 25.7773 68.9525C25.8588 67.8217 26.078 66.7114 26.1697 65.5857C26.5111 65.4731 26.7557 65.0842 26.6538 64.721Z" fill="#AEB4FC"/>
<path d="M18.1685 58.5399C16.7467 57.8338 15.3198 57.1226 13.898 56.4113C13.6024 56.2681 13.3323 56.6927 13.6279 56.8514C15.014 57.6189 16.4052 58.3813 17.7914 59.1488C18.199 59.3739 18.5761 58.7446 18.1685 58.5399Z" fill="#808AFF"/>
<path d="M20.8441 53.116C20.7269 52.8551 20.3906 53.0444 20.416 53.2798C20.5893 54.7534 21.1346 56.2578 21.5626 57.6802C21.6697 58.0282 22.2047 57.9105 22.1181 57.5472C21.7665 56.0838 21.4607 54.4925 20.8441 53.116Z" fill="#808AFF"/>
<path d="M27.4691 52.6863C27.1022 53.0087 26.878 53.5204 26.6487 53.9502C26.4092 54.4004 26.1951 54.861 25.9913 55.3266C25.8282 55.7052 26.455 55.9048 26.613 55.5159C26.8016 55.04 27.0054 54.5795 27.2398 54.1241C27.4386 53.7301 27.729 53.3464 27.8462 52.9217C27.9125 52.6914 27.6373 52.5328 27.4691 52.6863Z" fill="#808AFF"/>
<defs>
<clipPath id="clip0_1_2329">
<rect width="14" height="17" fill="white" transform="translate(147.5 24.3394)"/>
</clipPath>
<clipPath id="clip1_1_2329">
<rect width="69" height="12" fill="white" transform="translate(51.5 117.339)"/>
</clipPath>
<clipPath id="clip2_1_2329">
<rect width="32" height="26" fill="white" transform="translate(132.5 58.3394)"/>
</clipPath>
<clipPath id="clip3_1_2329">
<rect width="35" height="35" fill="white" transform="translate(34.5 -16.6606)"/>
</clipPath>
</defs>
</svg>
